<?xml version="1.0" encoding="UTF-8" standalone="no"?>
<!-- Created with Inkscape (http://www.inkscape.org/) -->

<svg
   width="135.46666mm"
   height="135.46666mm"
   viewBox="0 0 135.46666 135.46666"
   version="1.1"
   id="svg5"
   inkscape:version="1.1.1 (3bf5ae0d25, 2021-09-20)"
   sodipodi:docname="StickIcecream.svg"
   xmlns:inkscape="http://www.inkscape.org/namespaces/inkscape"
   xmlns:sodipodi="http://sodipodi.sourceforge.net/DTD/sodipodi-0.dtd"
   xmlns="http://www.w3.org/2000/svg"
   xmlns:svg="http://www.w3.org/2000/svg">
  <sodipodi:namedview
     id="namedview7"
     pagecolor="#ffffff"
     bordercolor="#666666"
     borderopacity="1.0"
     inkscape:pageshadow="2"
     inkscape:pageopacity="0.0"
     inkscape:pagecheckerboard="0"
     inkscape:document-units="mm"
     showgrid="false"
     fit-margin-top="0"
     fit-margin-left="0"
     fit-margin-right="0"
     fit-margin-bottom="0"
     inkscape:zoom="1.4467452"
     inkscape:cx="43.200419"
     inkscape:cy="263.00415"
     inkscape:window-width="1920"
     inkscape:window-height="1001"
     inkscape:window-x="-9"
     inkscape:window-y="-9"
     inkscape:window-maximized="1"
     inkscape:current-layer="layer1" />
  <defs
     id="defs2" />
  <g
     inkscape:label="Layer 1"
     inkscape:groupmode="layer"
     id="layer1"
     transform="translate(-78.57209,-80.400909)">
    <g
       id="g389"
       transform="translate(0.38828771,0.68715255)">
      <path
         style="fill:#ffffff;stroke-width:0.264583"
         d="M 78.139252,147.7014 V 79.968071 h 67.733328 67.73333 V 147.7014 215.43473 H 145.87258 78.139252 Z m 70.832258,61.615 1.53128,-0.56209 1.47797,-1.50023 1.47796,-1.50024 0.44026,-1.2921 0.44027,-1.29211 v -12.1237 -12.1237 h 4.59409 4.5941 l 1.42517,-0.26598 1.42518,-0.26598 1.61117,-0.78802 1.61117,-0.78802 1.37824,-1.45728 1.37824,-1.45729 0.84705,-1.78819 0.84705,-1.7882 V 139.7639 109.20453 l -0.70357,-2.545 -0.70356,-2.545 -0.92188,-1.99528 -0.92187,-1.99528 -1.25271,-1.94201 -1.25271,-1.942015 -2.41352,-2.41352 -2.41352,-2.41352 -1.94201,-1.252706 -1.94202,-1.252706 -1.99528,-0.921876 -1.99528,-0.921877 -2.54499,-0.6851 -2.545,-0.6851 h -4.63021 -4.63021 l -2.54499,0.6851 -2.545,0.6851 -1.99528,0.921877 -1.99528,0.921876 -1.94201,1.252706 -1.94202,1.252706 -2.41352,2.41352 -2.41352,2.41352 -1.25271,1.942015 -1.2527,1.94201 -0.92188,1.99528 -0.92187,1.99528 -0.70357,2.545 -0.70356,2.545 v 30.55937 30.55937 l 0.84705,1.7882 0.84705,1.78819 1.37824,1.45729 1.37824,1.45728 1.61117,0.78802 1.61116,0.78802 1.42518,0.26598 1.42518,0.26598 h 4.59409 4.5941 v 12.1237 12.1237 l 0.42947,1.26045 0.42948,1.26045 1.35646,1.44294 1.35646,1.44294 1.5875,0.64476 1.5875,0.64475 1.64372,0.006 1.64372,0.006 1.53128,-0.56208 z"
         id="path413" />
      <path
         style="fill:#fefefe;stroke-width:0.264583"
         d="m 125.3285,110.41464 -0.83261,-0.5077 -0.31746,-0.96191 -0.31746,-0.96191 1.09282,-2.2775 1.09282,-2.2775 1.16296,-1.74935 1.16297,-1.749344 1.937,-1.912253 1.937,-1.912254 2.0977,-1.453841 2.0977,-1.453841 h 1.03151 1.03151 l 0.77339,0.773397 0.7734,0.773398 v 0.910713 0.910713 l -0.55374,0.70397 -0.55375,0.703971 -1.62907,1.104743 -1.62907,1.104748 -1.28984,1.20352 -1.28985,1.20353 -1.12689,1.5875 -1.12688,1.5875 -1.08837,2.1757 -1.08837,2.17569 -0.78124,0.404 -0.78124,0.40399 -0.47616,-10e-4 -0.47616,-0.001 -0.83262,-0.5077 z"
         id="path411" />
      <path
         style="fill:#f8d4e7;stroke-width:0.264583"
         d="m 130.98977,178.72539 2.18281,-0.0891 2.18282,0.0891 2.18281,0.0891 h -4.36563 -4.36562 z m 25.4,0 2.18281,-0.0891 2.18281,0.0891 2.18282,0.0891 h -4.36563 -4.36562 z"
         id="path409" />
      <path
         style="fill:#fe958f;stroke-width:0.264583"
         d="m 155.88593,147.31499 -1.1822,-0.30017 -0.82504,-0.58749 -0.82505,-0.58748 -0.61397,-0.98745 -0.61396,-0.98746 -0.13229,-7.40833 -0.1323,-7.40833 -0.43845,-0.79925 -0.43846,-0.79925 -0.74667,-0.74667 -0.74667,-0.74667 -0.79925,-0.42954 -0.79925,-0.42954 h -1.71979 -1.71979 l -0.79925,0.42954 -0.79925,0.42954 -0.74667,0.74667 -0.74667,0.74667 -0.41958,0.79925 -0.41957,0.79925 -0.15769,3.22762 -0.15768,3.22762 -0.78966,1.12355 -0.78965,1.12354 -1.23455,0.63532 -1.23455,0.63532 -1.32327,-0.0102 -1.32327,-0.0102 -1.01163,-0.51871 -1.01164,-0.51872 -0.56437,-0.62106 -0.56436,-0.62107 -0.46216,-0.91315 -0.46216,-0.91316 -0.13314,-2.9233 -0.13314,-2.9233 -0.4863,-0.9666 -0.48631,-0.96659 -0.96184,-0.79283 -0.96184,-0.79283 -1.16121,-0.32512 -1.16121,-0.32512 -1.0839,0.17332 -1.08391,0.17333 -1.0376,0.52934 -1.0376,0.52935 -0.8103,1.11729 -0.8103,1.11729 0.10728,-9.65729 0.10728,-9.65729 0.7116,-2.4853 0.71159,-2.48529 1.03335,-2.20509 1.03334,-2.2051 1.34473,-1.945212 1.34472,-1.945213 2.18096,-2.116333 2.18096,-2.116333 1.68836,-1.13722 1.68834,-1.13722 2.1824,-1.022703 2.18239,-1.022703 2.61155,-0.725061 2.61155,-0.725062 4.36562,0.01135 4.36563,0.01135 2.56799,0.693298 2.568,0.693298 2.25468,1.056581 2.25469,1.056581 1.94521,1.344724 1.94521,1.344725 2.11634,2.180962 2.11633,2.180963 1.13722,1.688351 1.13722,1.68835 1.04311,2.225937 1.04312,2.22595 0.69565,2.568 0.69564,2.56799 0.0982,9.52386 0.0982,9.52385 -0.80853,-1.11615 -0.80853,-1.11615 -1.0376,-0.52934 -1.0376,-0.52934 -1.08391,-0.17333 -1.08391,-0.17332 -1.16121,0.32512 -1.16121,0.32512 -0.95968,0.79105 -0.95968,0.79105 -0.4575,0.83608 -0.4575,0.83608 -0.13688,7.27605 -0.13687,7.27604 -0.48939,0.92604 -0.48939,0.92604 -0.56436,0.62045 -0.56436,0.62045 -0.79375,0.41639 -0.79375,0.41638 -0.95067,0.17682 -0.95067,0.17681 -1.18219,-0.30017 z m -27.86372,-36.54497 0.88273,-0.41888 1.24107,-2.42539 1.24106,-2.42539 0.73081,-1.05833 0.73081,-1.05834 1.6833,-1.60459 1.6833,-1.60459 1.6382,-1.106757 1.6382,-1.106759 0.41232,-0.588667 0.41232,-0.588666 v -0.884565 -0.884564 l -0.29555,-0.577918 -0.29555,-0.577919 -0.56434,-0.457137 -0.56435,-0.457138 -1.13643,-0.0059 -1.13642,-0.0059 -2.03858,1.368798 -2.03857,1.368798 -1.91175,1.844637 -1.91176,1.844637 -1.29585,1.8798 -1.29585,1.87979 -0.92657,1.85208 -0.92656,1.85209 -0.18361,0.84749 -0.1836,0.84749 0.4604,0.97024 0.46041,0.97023 0.81466,0.35473 0.81466,0.35473 0.48918,0.0104 0.48918,0.0103 0.88273,-0.41888 z"
         id="path407" />
      <path
         style="fill:#fe958f;stroke-width:0.264583"
         d="m 117.67918,121.50765 v -7.80521 l 0.0809,3.90261 0.0809,3.9026 -0.0809,3.90261 -0.0809,3.9026 z m 56.35625,0 v -7.80521 l 0.0809,3.90261 0.0808,3.9026 -0.0808,3.90261 -0.0809,3.9026 z"
         id="path405" />
      <path
         style="fill:#fe958f;stroke-width:0.264583"
         d="m 151.54158,136.45661 2.7e-4,-5.82083 0.0845,2.99122 0.0845,2.99123 -0.0849,2.82961 -0.0849,2.8296 2.6e-4,-5.82083 z m -11.40784,-4.23333 0.003,-1.5875 0.10707,0.86463 0.10707,0.86464 -0.10977,0.72286 -0.10977,0.72287 0.003,-1.5875 z"
         id="path403" />
      <path
         style="fill:#fe958f;stroke-width:0.264583"
         d="m 117.68747,149.02432 v -18.65313 l 0.073,9.32657 0.073,9.32656 -0.073,9.32656 -0.073,9.32656 z m 56.3562,0.13229 5e-5,-18.52083 0.073,9.34596 0.073,9.34595 -0.0731,9.17488 -0.0731,9.17487 z"
         id="path401" />
      <path
         style="fill:rgb(85, 33, 33);stroke-width:0.264583"
         d="m 126.36341,178.24977 -1.38521,-0.37305 -1.26062,-0.64542 -1.26062,-0.64541 -1.13181,-1.09765 -1.1318,-1.09765 -0.70103,-1.10761 -0.70104,-1.10762 -0.48226,-1.54493 -0.48227,-1.54493 0.006,-19.75402 0.006,-19.75404 0.48919,-1.07705 0.48918,-1.07705 0.9751,-0.80376 0.9751,-0.80375 1.008,-0.30201 1.008,-0.302 0.49847,0.002 0.49847,0.002 1.01091,0.28072 1.01092,0.28071 1.08005,0.97459 1.08005,0.97458 0.37635,0.89908 0.37636,0.89909 0.19608,3.13802 0.19609,3.13802 0.77617,1.10195 0.77618,1.10196 1.1661,0.61563 1.16609,0.61562 h 1.55438 1.55439 l 0.85139,-0.35983 0.8514,-0.35984 0.75217,-0.75914 0.75217,-0.75915 0.42403,-0.79925 0.42402,-0.79925 0.1643,-3.06888 0.16431,-3.06888 0.71705,-1.22357 0.71706,-1.22356 1.24604,-0.73023 1.24603,-0.73023 h 1.46261 1.46261 l 1.24604,0.73023 1.24604,0.73023 0.73463,1.24974 0.73462,1.24951 0.13229,7.27604 0.13229,7.27604 0.44045,0.79375 0.44045,0.79375 0.88247,0.84367 0.88247,0.84367 0.74483,0.28081 0.74482,0.28081 h 1.52867 1.52865 l 1.1661,-0.61562 1.16609,-0.61563 0.79375,-1.12606 0.79375,-1.12606 0.144,-7.32029 0.144,-7.3203 0.41087,-0.92604 0.41086,-0.92604 1.08006,-0.97458 1.08005,-0.97458 1.01091,-0.28072 1.01092,-0.28071 0.49847,-0.002 0.49847,-0.002 1.008,0.30201 1.00799,0.302 0.9751,0.80376 0.9751,0.80376 0.48919,1.07705 0.48918,1.07705 0.006,19.75403 0.006,19.75403 -0.48227,1.54493 -0.48227,1.54492 -0.7174,1.13356 -0.71741,1.13355 -1.10644,1.07377 -1.10644,1.07376 -1.26132,0.63916 -1.26131,0.63915 -1.51525,0.39467 -1.51524,0.39467 -18.00222,-0.0174 -18.00222,-0.0174 -1.38522,-0.37306 z"
         id="path399" />
      <path
         style="fill:#d2a975;stroke-width:0.264583"
         d="m 143.75592,209.3822 -0.66146,-0.21766 -1.08812,-0.55589 -1.08812,-0.5559 -1.20263,-1.33763 -1.20264,-1.33762 -0.46694,-1.25524 -0.46694,-1.25524 -0.10997,-9.19427 -0.10997,-9.19427 h 8.51345 8.51346 l -0.10997,9.19427 -0.10997,9.19427 -0.46694,1.25524 -0.46694,1.25524 -1.20396,1.33908 -1.20395,1.33909 -1.35138,0.68814 -1.35139,0.68813 -1.85208,0.084 -1.85209,0.084 z"
         id="path397" />
      <path
         style="fill:#c6888a;stroke-width:0.264583"
         d="m 141.5731,178.72427 4.29948,-0.0797 4.29948,0.0797 4.29948,0.0797 h -8.59896 -8.59896 z"
         id="path395" />
      <path
         style="fill:#be9574;stroke-width:0.264583"
         d="m 141.5731,184.28052 4.29948,-0.0797 4.29948,0.0797 4.29948,0.0797 h -8.59896 -8.59896 z"
         id="path393" />
      <path
         style="fill:#b38b73;stroke-width:0.264583"
         d="m 137.40592,181.56807 v -2.64584 h 8.46666 8.46667 v 2.64584 2.64583 h -8.46667 -8.46666 z"
         id="path391" />
    </g>
    <path
       style="fill:#fe958f;fill-opacity:1;stroke-width:0.0323292"
       d="m 156.22019,155.37876 -1.16385,-0.29864 -0.82288,-0.58805 -0.82288,-0.58806 -0.60434,-0.97343 -0.60434,-0.97343 -0.0196,-0.61755 c -0.0108,-0.33965 -0.0413,-1.91961 -0.0679,-3.51102 -0.0266,-1.5914 -0.0547,-3.22807 -0.0625,-3.63703 -0.008,-0.40897 -0.0385,-2.16202 -0.0682,-3.89568 l -0.0541,-3.15211 -0.43684,-0.80823 -0.43684,-0.80823 -0.74235,-0.7465 -0.74235,-0.7465 -0.82175,-0.4416 -0.82175,-0.4416 h -1.70361 -1.70361 l -0.80996,0.43521 -0.80997,0.4352 -0.76358,0.76906 -0.76359,0.76906 -0.40749,0.77883 -0.4075,0.77884 -0.0505,1.03161 c -0.0278,0.56738 -0.0995,2.02155 -0.15924,3.23148 l -0.10872,2.19987 -0.78724,1.11971 -0.78724,1.11971 -1.23947,0.6369 -1.23948,0.63689 -1.31453,-0.015 -1.31454,-0.015 -1.0011,-0.51459 -1.0011,-0.5146 -0.55963,-0.61289 -0.55963,-0.61288 -0.4683,-0.91306 -0.4683,-0.91307 -0.13374,-2.93293 -0.13374,-2.93295 -0.49471,-0.97243 -0.49472,-0.97243 -0.88013,-0.7274 c -0.48408,-0.40008 -0.92488,-0.75875 -0.97956,-0.79706 -0.0954,-0.0669 -2.25695,-0.68971 -2.39596,-0.69041 -0.0349,-1.6e-4 -0.53453,0.0748 -1.11025,0.16672 l -1.04675,0.16703 -1.04237,0.5314 -1.04237,0.53141 -0.78818,1.08782 -0.78817,1.08783 -0.007,-0.29072 c -0.004,-0.15989 0.0417,-4.50241 0.10178,-9.65003 0.10687,-9.15357 0.11071,-9.36393 0.17488,-9.56945 0.0361,-0.11558 0.0964,-0.31561 0.13397,-0.44453 l 0.0684,-0.23438 h 2.68257 2.68258 l -0.0195,0.0889 c -0.0107,0.0489 -0.0247,0.10622 -0.0312,0.12738 -0.006,0.0212 0.19677,0.47831 0.45158,1.01588 l 0.46329,0.97741 0.80388,0.35293 0.80387,0.35293 0.5011,0.0172 0.50111,0.0172 0.88905,-0.42013 0.88906,-0.42013 0.53769,-1.04668 0.53769,-1.04668 h 21.71866 21.71866 l 0.15712,0.56576 0.15714,0.56577 0.0954,8.72889 c 0.0525,4.80089 0.0919,9.08059 0.0877,9.51044 l -0.008,0.78156 -0.77601,-1.07252 -0.776,-1.07252 -1.0506,-0.53827 -1.0506,-0.53828 -1.03819,-0.16488 c -0.57101,-0.0907 -1.06915,-0.16489 -1.10699,-0.16489 -0.11048,0 -2.27513,0.61498 -2.37193,0.67387 -0.0484,0.0294 -0.49381,0.38815 -0.9898,0.79711 l -0.90179,0.74358 -0.46191,0.84056 -0.46192,0.84056 -0.13764,7.27946 -0.13765,7.27946 -0.47971,0.91149 -0.47972,0.91149 -0.57116,0.63087 -0.57118,0.63087 -0.78939,0.41516 -0.7894,0.41518 -0.96287,0.1789 c -0.52957,0.0984 -0.96478,0.17729 -0.96713,0.17531 -0.002,-0.002 -0.52801,-0.13798 -1.16813,-0.30223 z"
       id="path6741" />
    <circle
       id="path12746"
       style="fill:#b38b73;stroke:#000000;stroke-width:0.264583"
       cx="142.35767"
       cy="184.98598"
       r="0.0043062228" />
    <circle
       id="path12748"
       style="fill:#b38b73;stroke:#000000;stroke-width:0.264583"
       cx="142.35767"
       cy="184.98598"
       r="0.0043062228" />
    <circle
       id="path14142"
       style="fill:#b38b73;stroke:#000000;stroke-width:0.264583"
       cx="130.69339"
       cy="185.92369"
       r="0.0015240144" />
    <circle
       id="path14144"
       style="fill:#b38b73;stroke:#000000;stroke-width:0.264583"
       cx="130.69339"
       cy="185.92369"
       r="0.0015240144" />
    <path
       style="fill:#b38b73;fill-opacity:1;stroke-width:0.264583"
       id="path14170"
       d="m 137.88263,185.04892 c 0.122,0.0222 0.24656,0.01 0.36924,10e-4 0.17816,-0.0118 0.13047,-0.009 0.30644,-0.0237 0.14311,-0.008 0.28297,-0.0529 0.42691,-0.0395 0.0813,0.008 0.14388,0.0234 0.22361,0.0403 0.18257,0.0473 0.36158,0.10551 0.5472,0.13999 0.0997,0.008 0.20632,0.0631 0.30675,0.0359 0.0357,-0.003 0.0503,-0.0393 0.0776,-0.0549 0.003,-0.002 -0.012,0.008 -0.008,0.007 0.0161,-0.004 0.031,-0.012 0.0468,-0.017 0.0226,-0.007 0.0455,-0.0133 0.0683,-0.0199 0.0903,-0.0245 0.18209,-0.0421 0.27424,-0.0576 0,0 0.0312,-0.0235 0.0312,-0.0235 v 0 c -0.0923,0.0155 -0.18422,0.0331 -0.27467,0.0573 -0.065,0.0186 -0.13654,0.0342 -0.18938,0.0797 -0.004,0.004 -0.0175,0.009 -0.0128,0.0122 0.005,0.004 0.0123,-0.005 0.0185,-0.008 -0.0963,0.0302 -0.20994,-0.0259 -0.30655,-0.0338 -0.18572,-0.0343 -0.36481,-0.0924 -0.54745,-0.1397 -0.10565,-0.0227 -0.21384,-0.0501 -0.323,-0.0448 -0.03,0.001 -0.0595,0.009 -0.0893,0.0128 -0.13456,0.019 -0.093,0.0132 -0.2394,0.0306 -0.17717,0.0154 -0.12692,0.012 -0.3062,0.0236 -0.12198,0.008 -0.24593,0.0206 -0.36721,-0.002 0,0 -0.0324,0.0226 -0.0324,0.0226 z" />
    <circle
       id="path14172"
       style="fill:#b38b73;stroke:#000000;stroke-width:0.264583"
       cx="137.80292"
       cy="185.05501"
       r="0.00030449792" />
    <circle
       id="path14174"
       style="fill:#b38b73;stroke:#000000;stroke-width:0.264583"
       cx="137.80292"
       cy="185.05501"
       r="0.00030449792" />
    <path
       style="fill:#b38b73;fill-opacity:1;stroke-width:0.264583"
       id="path14182"
       d="m 137.69021,185.01137 c 0.2287,-0.004 0.45754,0.002 0.68607,0.0107 0.25476,0.0118 0.50958,0.0272 0.7615,0.0681 0.1152,0.0182 0.22773,0.056 0.34556,0.0539 0.0338,-5.3e-4 0.0674,-0.005 0.10107,-0.008 0.30376,-0.0507 0.60158,-0.13188 0.90019,-0.20622 0.33693,-0.0838 0.67629,-0.15782 1.02307,-0.1829 0.21907,-0.0168 0.42291,0.0542 0.62518,0.12847 0.12076,0.0392 0.23435,0.12488 0.36789,0.11666 0.17707,-0.0109 0.41461,-0.0965 0.57314,-0.14544 0.12274,-0.0379 0.24529,-0.0764 0.36794,-0.11454 0.31767,-0.0972 0.64108,-0.17607 0.97054,-0.22068 0.14619,-0.0198 0.27088,-0.0307 0.4169,-0.0257 0.0518,0.002 0.1033,0.009 0.15495,0.0138 0.23081,0.0263 0.42568,0.16103 0.6429,0.22902 0.0529,0.0166 0.10743,0.0277 0.16115,0.0415 0.36919,0.0743 0.74606,0.0854 1.12132,0.08 0.17147,-0.004 0.34278,-0.012 0.51415,-0.0184 0.16413,0.008 0.32788,0.0389 0.48896,0.071 0.12856,0.0292 0.25433,0.0697 0.38386,0.0945 0.19796,0.0167 0.38993,0.0686 0.57855,0.12854 0.10969,0.0372 0.21338,0.0906 0.32524,0.12132 0.0609,0.0152 0.11967,10e-4 0.1787,-0.0139 0.1086,-0.0269 0.21792,-0.0499 0.32566,-0.0805 0.0742,-0.0218 0.14858,-0.0431 0.22619,-0.0444 0.0967,0.008 0.18835,0.0446 0.28441,0.0568 0.0307,0.004 0.0617,0.005 0.0926,0.008 0.26888,-0.002 0.5374,-0.0125 0.80634,-0.009 0.10922,-0.002 0.21786,-0.007 0.3271,-0.004 0.12884,0.005 0.25779,0.006 0.3867,0.008 0.12188,-0.003 0.24277,0.009 0.36357,0.0234 0.1339,0.0213 0.26894,0.0231 0.40417,0.0236 0.22535,0.003 0.44954,-0.0233 0.67439,-0.0346 0.14861,-0.007 0.29736,-0.009 0.44611,-0.0102 0.10697,-0.005 0.21338,-0.0195 0.3189,-0.0371 0.0663,-0.0123 0.13295,-0.0228 0.20023,-0.0281 0.0514,-0.003 0.10299,-0.003 0.1545,-0.003 0.0354,7.9e-4 0.066,-0.008 0.0793,0.0306 0.0111,0.0406 -0.0195,0.0609 -0.0513,0.078 0.10657,-0.0626 0.21332,-0.12483 0.31971,-0.18771 0.006,-0.004 -0.0123,0.007 -0.0188,0.01 -0.007,0.003 -0.0151,0.006 -0.0228,0.008 -0.0346,0.009 -0.0712,0.01 -0.10668,0.0116 -0.0893,0.001 -0.17483,-0.0246 -0.26049,-0.0462 -0.0567,-0.0158 -0.11306,-0.0325 -0.16867,-0.0517 -0.0554,-0.0147 -0.10874,-0.0343 -0.16201,-0.0553 -0.11328,-0.0291 -0.23028,-0.0422 -0.34633,-0.0552 -0.0763,-0.007 -0.15303,-0.0172 -0.2297,-0.009 -0.0331,0.004 -0.0661,0.0111 -0.0987,0.0178 -0.0876,0.023 -0.17555,0.0429 -0.26537,0.0546 -0.0665,0.008 -0.13345,0.009 -0.20028,0.01 -0.11234,0.004 -0.2237,-0.01 -0.33388,-0.0302 -0.1258,-0.0278 -0.25289,-0.0537 -0.38245,-0.0522 -0.0442,5.3e-4 -0.0882,0.005 -0.13234,0.008 -0.27357,0.0249 -0.54174,0.0889 -0.80855,0.15199 -0.16498,0.0437 -0.33206,0.0776 -0.50171,0.0963 -0.10941,0.0142 -0.21871,-0.002 -0.32662,-0.0198 -0.12346,-0.0261 -0.24728,-0.0495 -0.37031,-0.0777 -0.0263,-0.005 -0.0525,-0.0103 -0.079,-0.0143 -0.0119,-0.002 -0.17418,-0.021 -0.18611,-0.0224 -0.0797,-0.01 -0.10628,-0.0155 -0.19093,-0.0133 -0.0447,0.001 -0.0893,0.006 -0.13388,0.009 -0.27349,0.03 -0.54774,0.0372 -0.82244,0.0278 -0.14963,-0.0114 -0.299,-0.025 -0.44885,-0.0333 -0.15634,-0.006 -0.31287,-0.005 -0.46931,-0.006 -0.13864,-0.005 -0.27616,1.3e-4 -0.41394,0.0151 -0.22814,0.0259 -0.45765,0.0428 -0.68729,0.0447 -0.0947,0.002 -0.18591,-0.0192 -0.2769,-0.0421 -0.0709,-0.0217 -0.14199,-0.0302 -0.21596,-0.0338 -0.18257,-0.004 -0.36518,-0.005 -0.54779,-0.007 -0.14386,-0.006 -0.28762,-0.0139 -0.43125,-0.0238 -0.14844,-0.01 -0.29682,-0.0222 -0.44548,-0.0126 -0.16763,0.0157 -0.3355,0.0285 -0.50351,0.0395 -0.18899,0.0115 -0.3783,0.0159 -0.56761,0.0177 -0.15601,0.001 -0.31201,0.004 -0.46804,0.004 -0.17018,0.003 -0.34025,0.01 -0.51036,0.0153 -0.14674,0.005 -0.29356,0.005 -0.44036,0.007 -0.15588,10e-4 -0.31175,-0.001 -0.46762,-0.002 -0.11339,-0.002 -0.22679,5.2e-4 -0.34018,0.001 -0.21719,0.009 -0.43311,-0.0165 -0.64829,-0.0422 -0.22449,-0.018 -0.44982,-0.0267 -0.6748,-0.0377 -0.11773,-0.005 -0.23533,-0.008 -0.35234,-0.0223 -0.13097,-0.014 -0.26248,0.009 -0.39213,0.0264 -0.0837,0.0135 -0.16865,0.0169 -0.25231,0.0302 -0.0862,0.0147 -0.1705,0.0358 -0.25322,0.0638 -0.0578,0.0178 -0.1146,0.0356 -0.16875,0.0626 -0.0436,0.0261 -0.0869,0.0128 -0.1332,0.003 -0.0481,-0.0105 -0.0971,-0.0147 -0.14618,-0.017 -0.0519,-0.002 -0.1038,-1.6e-4 -0.15565,-0.002 -0.0537,-0.01 -0.10574,-0.0261 -0.15961,-0.0355 -0.0382,-0.003 -0.0726,-0.0107 -0.10048,-0.0379 -0.0207,-0.0228 -0.0319,-0.0504 -0.0411,-0.0793 0,0 -0.34681,0.19118 -0.34681,0.19118 v 0 c 0.0118,0.0334 0.0257,0.0658 0.0486,0.0934 0.0293,0.0354 0.0691,0.0594 0.11611,0.0606 0.0547,0.007 0.1082,0.019 0.16046,0.0367 0.0518,0.009 0.10471,0.002 0.1571,0.005 0.0478,0.001 0.0957,0.003 0.14276,0.0114 0.0483,0.009 0.0994,0.033 0.14775,0.0172 0.0236,-0.0101 0.0444,-0.0243 0.0675,-0.0349 0.0325,-0.0149 0.0686,-0.0189 0.10141,-0.0327 0.0811,-0.029 0.16232,-0.0546 0.24768,-0.0679 0.085,-0.0153 0.17097,-0.0219 0.25647,-0.0349 0.12611,-0.018 0.25406,-0.0423 0.3818,-0.0313 0.1209,0.0141 0.24195,0.016 0.36363,0.0179 0.22379,0.008 0.44759,0.0188 0.67077,0.0375 0.2162,0.0216 0.43257,0.0492 0.65025,0.046 0.11207,10e-4 0.22414,0.003 0.33621,0.002 0.15777,-7.9e-4 0.31553,-0.003 0.4733,-0.002 0.1454,7.9e-4 0.29085,0.002 0.4362,-0.002 0.17227,-0.007 0.34434,-0.0184 0.51674,-0.0217 0.15383,5.3e-4 0.30768,0.005 0.46149,0.001 0.19169,-0.006 0.38334,-0.0127 0.57493,-0.0212 0.16648,-0.009 0.33283,-0.0177 0.49867,-0.0351 0.14787,-0.0128 0.29563,-0.004 0.44349,0.007 0.14397,0.011 0.28802,0.0205 0.43231,0.0264 0.18171,-5.3e-4 0.36353,-0.002 0.54512,0.006 0.0435,0.003 0.0891,0.003 0.13191,0.0122 0.0357,0.008 0.0119,0.005 0.049,0.0144 0.009,0.002 0.0176,0.003 0.0264,0.005 0.0959,0.0213 0.19088,0.0473 0.29039,0.0444 0.22947,-0.004 0.45871,-0.0224 0.68742,-0.0407 0.0459,-0.004 0.0916,-0.0103 0.1375,-0.0144 0.0914,-0.008 0.18334,-0.002 0.27492,-0.005 0.15538,-6e-5 0.3108,5.3e-4 0.4661,0.006 0.15158,0.006 0.3026,0.0194 0.45387,0.0306 0.27676,0.006 0.55295,-0.002 0.82873,-0.0275 0.0427,-0.003 0.0853,-0.008 0.12811,-0.01 0.1499,-0.005 0.29961,0.0269 0.44736,0.0466 0.12287,0.0277 0.24571,0.0546 0.36876,0.0812 0.10994,0.0203 0.22248,0.0385 0.33441,0.0276 0.17311,-0.0179 0.34377,-0.0517 0.51171,-0.0975 0.26573,-0.066 0.53336,-0.1318 0.80633,-0.15866 0.0425,-0.003 0.0848,-0.008 0.12739,-0.009 0.12628,-0.003 0.24989,0.0246 0.3722,0.0526 0.11109,0.0209 0.22301,0.0395 0.33651,0.0374 0.0674,5.3e-4 0.13496,0.002 0.20211,-0.005 0.0911,-0.0102 0.18127,-0.0263 0.26911,-0.0531 0.032,-0.007 0.0637,-0.0157 0.096,-0.0214 0.0756,-0.0134 0.15184,-0.005 0.22768,0.001 0.11258,0.0112 0.22434,0.0268 0.33491,0.0511 0.0544,0.0191 0.10614,0.045 0.16342,0.0556 0.0568,0.0194 0.1131,0.0391 0.17107,0.0548 0.089,0.0197 0.1765,0.0468 0.26791,0.0538 0.23738,-0.004 0.21849,-0.0327 0.51393,-0.22075 0.0339,-0.0357 0.0464,-0.0758 0.0299,-0.12417 -0.0199,-0.0473 -0.0519,-0.0746 -0.10582,-0.0699 -0.052,-9e-5 -0.10408,-5.3e-4 -0.1561,0.001 -0.0695,0.004 -0.13828,0.013 -0.20639,0.0273 -0.10395,0.0196 -0.20852,0.0333 -0.31402,0.0415 -0.15255,0.003 -0.30497,0.0102 -0.45738,0.0168 -0.11722,0.005 -0.23448,0.01 -0.35144,0.0196 -0.0768,0.006 -0.12557,0.0137 -0.20374,0.016 -0.0387,0.001 -0.0775,-2.4e-4 -0.11623,-2.6e-4 -0.13227,-0.002 -0.26392,-0.009 -0.39529,-0.025 -0.12164,-0.0137 -0.24317,-0.0323 -0.36598,-0.0267 -0.12843,-5.3e-4 -0.25686,-0.002 -0.38519,-0.008 -0.0518,-0.002 -0.10465,-0.007 -0.15651,-0.006 -0.0588,0.002 -0.11743,0.0129 -0.17644,0.0119 -0.26798,0.002 -0.53578,0.0146 -0.80376,0.0118 -0.12695,-0.0121 -0.24762,-0.0389 -0.37102,-0.0702 -0.0143,-0.002 -0.0284,-0.006 -0.0428,-0.006 -0.0657,-0.003 -0.13095,0.0287 -0.19386,0.0413 -0.10606,0.0317 -0.21267,0.0599 -0.32219,0.0772 -0.0537,0.0191 -0.10991,0.035 -0.16736,0.0316 -0.11512,-0.0236 -0.22139,-0.076 -0.33238,-0.11306 -0.18744,-0.0594 -0.37846,-0.11294 -0.57379,-0.13838 -0.13243,-0.0196 -0.26109,-0.0574 -0.39122,-0.088 -0.10254,-0.0209 -0.20562,-0.0369 -0.30846,-0.0562 -0.002,-2.6e-4 -0.12468,-0.0242 -0.1372,-0.0258 -0.0137,-0.002 -0.0276,-10e-4 -0.0413,-0.002 -0.17628,0.0102 -0.35237,0.0238 -0.52885,0.0304 -0.3732,0.0113 -0.74827,0.004 -1.11548,-0.0715 -0.0519,-0.0134 -0.10457,-0.0243 -0.15578,-0.0403 -0.22065,-0.0688 -0.41733,-0.20675 -0.65116,-0.23578 -0.0538,-0.005 -0.10735,-0.0125 -0.16129,-0.014 -0.15319,-0.004 -0.27982,0.009 -0.43314,0.0311 -0.3341,0.0481 -0.66238,0.12814 -0.98521,0.22603 -0.12069,0.0367 -0.24129,0.0738 -0.36209,0.11026 -0.12881,0.0388 -0.38595,0.12544 -0.53745,0.13827 -0.13223,0.0112 -0.24446,-0.0685 -0.3635,-0.10923 -0.21202,-0.0824 -0.40083,-0.1602 -0.63305,-0.14309 -0.35118,0.0266 -0.69461,0.10205 -1.03634,0.18512 -0.29377,0.0706 -0.58647,0.14727 -0.88393,0.2009 -0.0823,0.009 -0.0987,0.0152 -0.17816,0.008 -0.0879,-0.007 -0.1722,-0.0376 -0.25935,-0.0495 -0.25833,-0.0368 -0.51907,-0.0463 -0.77941,-0.0602 -0.22165,-0.0121 -0.44354,-0.0217 -0.66541,-0.0278 0,0 -0.32038,0.23277 -0.32038,0.23277 z" />
    <path
       style="fill:#b38b73;fill-opacity:1;stroke-width:0.264583"
       id="path14184"
       d="m 140.60661,185.03997 c 0.1495,0.0864 0.31759,0.12979 0.48817,0.14647 0.22072,-0.003 0.33193,-0.0866 0.53998,-0.23654 0.0118,-0.008 -0.004,-0.0309 -0.0143,-0.0411 -0.0151,-0.0151 -0.0378,-0.0199 -0.0567,-0.0299 -0.0365,-10e-4 -0.0731,-0.005 -0.10961,-0.004 -0.11498,0.005 -0.23629,0.0288 -0.34833,0.0499 -0.1841,0.0346 -0.36739,0.074 -0.5507,0.11251 -0.1269,0.0296 -0.37967,0.051 -0.39485,0.24147 -0.006,0.0721 0.13564,-0.0501 0.20373,-0.0744 0.0836,-0.0299 0.16761,-0.0587 0.25141,-0.0881 0.2158,-0.0715 0.42839,-0.1522 0.6439,-0.22449 0.0983,-0.033 0.19422,-0.0636 0.29645,-0.0801 0.0588,-0.007 0.0909,0.027 0.13831,0.0554 0.0475,0.0285 0.0744,0.0412 0.12375,0.0664 0.25908,0.11924 0.14035,0.0851 0.48237,-0.15615 -0.19917,0.0253 -0.39991,0.0333 -0.60037,0.0407 -0.1966,0.01 -0.39316,0.005 -0.58957,-0.005 -0.0938,-0.007 -0.18765,-0.009 -0.28168,-0.009 5.3e-4,0.0534 -0.0867,-0.0339 -0.0977,-0.003 -0.005,0.0125 0.0396,0.0175 0.0298,0.0263 -0.0724,0.065 -0.19426,0.0787 -0.24149,0.16367 -0.0306,0.0551 0.12009,-0.0385 0.18099,-0.0548 0.0761,-0.0203 0.15325,-0.0366 0.22987,-0.0549 0.27955,-0.0559 0.56102,-0.10906 0.84548,-0.1329 0.11013,-0.009 0.16043,-0.009 0.26792,-0.0104 0.17448,-0.004 0.3415,0.0434 0.50481,0.0992 0.1297,0.0373 0.25211,0.0919 0.37011,0.15667 0.115,0.067 0.22889,0.13629 0.3517,0.18814 0.0585,0.0248 0.12028,0.0338 0.18318,0.0365 0.0583,-0.001 0.11584,-0.0121 0.17378,-0.018 0.0937,-0.0104 0.18721,-0.0192 0.27948,-0.0389 0.16325,-0.0408 0.27234,-0.13276 0.43251,-0.2292 0.0322,-0.0194 -0.009,-0.0595 -0.0192,-0.0717 -0.0181,-0.009 -0.0355,-0.019 -0.0542,-0.0263 -0.0548,-0.0214 -0.13051,-0.0408 -0.18617,-0.0548 -0.0944,-0.0238 -0.18924,-0.0427 -0.28513,-0.0594 -0.13208,-0.0201 -0.26459,-0.0366 -0.39773,-0.0477 -0.0752,-0.0111 -0.1477,-0.004 -0.22115,0.0126 -0.0652,0.0171 -0.12836,0.04 -0.19424,0.0545 -0.0848,0.0141 -0.17102,0.0153 -0.25677,0.0173 -0.142,-0.006 -0.27032,0.0116 -0.40842,0.0444 -0.13729,0.0327 -0.2694,0.0914 -0.41024,0.10887 -0.0244,0.003 -0.049,0.004 -0.0735,0.005 -0.11892,0.001 -0.23401,-0.0321 -0.35102,-0.0488 -0.1556,-0.0215 -0.31122,0.006 -0.46495,0.0287 -0.14414,0.0226 -0.28957,0.039 -0.43559,0.0395 -0.0785,8e-4 -0.15508,-0.0154 -0.23224,-0.0268 -0.0971,-0.0152 -0.19231,0.009 -0.28518,0.0351 -0.092,0.0238 -0.18376,0.0491 -0.27646,0.0701 -0.0535,0.0124 -0.10817,0.0158 -0.16285,0.0172 -0.0514,5.3e-4 -0.10276,2.7e-4 -0.15414,2.4e-4 -0.0508,-1.8e-4 -0.1016,-2.6e-4 -0.1524,-5.3e-4 -0.0425,-7.9e-4 -0.0832,0.0116 -0.12315,0.0245 -0.0536,0.0161 -0.10997,0.0181 -0.16548,0.0203 -0.041,0.002 -0.0791,-0.0103 -0.11716,-0.0233 -0.0758,-0.0264 -0.15229,-0.0494 -0.22982,-0.0702 -0.0731,-0.0231 -0.14747,-0.0412 -0.22228,-0.0577 -0.0339,-0.006 -0.0654,-0.0189 -0.0968,-0.0326 -0.004,-0.002 -0.0147,-0.0105 -0.0133,-0.006 0.003,0.01 0.0125,0.0161 0.0187,0.0242 -0.0927,0.0622 -0.23571,0.0834 -0.27807,0.18675 -0.03,0.0732 0.152,-0.0441 0.22825,-0.0653 0.13291,-0.0369 0.26565,-0.0745 0.3992,-0.10898 0.38114,-0.0985 0.7559,-0.18583 1.14129,-0.26821 0.2177,-0.0465 0.43628,-0.0888 0.65442,-0.13319 0.7769,-0.1421 1.55583,-0.28835 2.34399,-0.35337 0.42438,-0.035 0.5609,-0.0292 0.9791,-0.0335 0.44135,0.0127 0.88699,0.0404 1.31249,0.16738 0.16582,0.0495 0.19861,0.0702 0.34795,0.13866 0.20638,0.10819 0.38239,0.26126 0.54106,0.43006 0.0254,0.0357 -0.11149,0.0793 -0.0883,0.0538 0.0533,-0.0584 0.19001,-0.0651 0.18843,-0.14421 -10e-4,-0.065 -0.12674,0.0294 -0.19046,0.0425 -0.18009,0.0369 -0.25328,0.0471 -0.43406,0.0767 -0.24166,0.0345 -0.48388,0.0725 -0.72849,0.074 -0.081,-0.009 -0.16072,-0.021 -0.24237,-0.0251 -0.0989,-0.005 -0.19763,-0.008 -0.29639,5.3e-4 -0.12176,0.0129 -0.24341,0.0271 -0.36516,0.0401 -0.0391,0.003 -0.0517,0.005 -0.0883,0.003 -0.008,-5.3e-4 -0.0153,-0.002 -0.0229,-0.003 -0.001,-1.2e-4 -0.004,-7.9e-4 -0.003,8e-5 0.0115,0.013 0.0157,0.0121 0.032,0.0182 -0.57813,0.33694 -0.41015,0.17164 -0.26874,0.18312 0.0809,0.007 0.15898,0.009 0.24046,0.009 0.28399,-0.004 0.568,-0.005 0.852,-0.005 0.14199,2.2e-4 0.28388,0.001 0.42569,-0.006 0.11756,-0.008 0.23528,-0.0123 0.35306,-0.0146 0.084,-0.001 0.16797,-0.001 0.25195,-0.002 0.2189,-0.001 0.43764,-0.009 0.65642,-0.0154 0.15356,0.006 0.30235,-0.0248 0.45167,-0.0552 0.162,-0.0417 0.32631,-0.0679 0.49234,-0.0865 0.1458,-0.0211 0.29176,-0.0369 0.4389,-0.044 0.16227,-0.006 0.32468,-0.006 0.48704,-0.006 0.13608,10e-4 0.27179,-0.0109 0.40772,-0.0162 0.14855,-0.007 0.29736,-0.003 0.44594,-0.007 0.12614,-0.0163 0.25201,-0.004 0.37708,0.0146 0.12134,0.021 0.23949,0.0563 0.36007,0.0806 0.0871,0.0172 0.17483,0.0308 0.26318,0.0395 0.1179,0.0121 0.23451,-0.0144 0.35049,-0.0319 0.16478,-0.0178 0.32663,-0.0538 0.48937,-0.0841 0.17195,-0.0332 0.34599,-0.0362 0.52003,-0.0245 0.11271,0.008 0.22508,0.0207 0.33789,0.0275 0.10011,0.0109 0.20061,0.0164 0.30116,0.0212 0.0216,5.2e-4 0.0432,0.002 0.0648,10e-4 0.13052,-0.003 0.26092,-0.0188 0.39103,-0.0281 0.15157,-0.0109 0.1909,-0.0123 0.34354,-0.0204 0.19882,-0.008 0.39783,-0.005 0.59661,0.002 0.0875,-5.3e-4 0.17288,0.0199 0.25904,0.0322 0.14451,0.0164 0.29049,0.002 0.43491,-0.009 0.0758,-0.006 0.15166,-0.0118 0.22765,-0.0152 -0.11055,-0.12613 -0.0138,0.008 0.25388,-0.21487 0.0278,-0.0232 -0.07,0.0188 -0.10506,0.0276 -0.15269,0.0387 -0.30543,0.0679 -0.46073,0.0938 -0.24681,0.0416 -0.49642,0.0535 -0.74622,0.0513 -0.13967,-0.005 -0.27862,-0.007 -0.4179,0.005 -0.20311,0.0353 -0.40786,0.055 -0.61349,0.0675 -0.13804,0.002 -0.27582,-0.002 -0.41385,0.002 -0.12957,0.005 -0.25921,0.007 -0.38887,0.007 -0.0959,2e-5 -0.19167,0.003 -0.28715,-0.007 -0.0174,-0.002 -0.15563,-0.0204 -0.14723,-0.0503 10e-4,-0.005 0.007,-0.008 0.01,-0.0122 0.12004,-0.0489 0.27871,-0.21512 -0.1491,0.095 -0.0268,0.0194 0.0609,-0.0261 0.0919,-0.0378 0.0665,-0.0254 0.0967,-0.0332 0.16301,-0.0531 0.0463,-0.008 0.15872,-0.0563 0.19934,-0.0113 -0.0205,0.0569 -0.0638,0.0893 -0.11387,0.11944 0.10115,-0.0592 0.20283,-0.1176 0.30344,-0.17776 0.004,-0.002 -0.0229,0.0138 -0.0597,0.0252 -0.0312,0.01 -0.0568,0.0116 -0.089,0.009 -0.0613,-0.0157 -0.1116,-0.0563 -0.16283,-0.0917 -0.003,-0.003 -0.0114,-0.0105 -0.009,-0.008 0.0994,0.10787 0.14642,-0.0845 -0.30838,0.21495 -0.009,0.006 0.0213,-0.007 0.0322,-0.009 0.0342,-0.007 0.0709,-0.01 0.10542,-0.013 0.15116,-0.0163 0.2693,-0.0159 0.3519,-0.22686 0.0224,-0.0572 -0.11804,0.0345 -0.17759,0.0497 -0.0827,0.0211 -0.16601,0.0396 -0.24901,0.0594 -0.42563,0.0966 -0.86009,0.15176 -1.29656,0.13242 -0.11888,-0.008 -0.23312,-0.0399 -0.3481,-0.0679 -0.0958,-0.0233 -0.10054,-0.0224 -0.20248,-0.0404 -0.11191,-0.0157 -0.22598,-0.0348 -0.33933,-0.02 -0.0959,0.0126 -0.22058,0.0504 -0.31104,0.0741 -0.067,0.0176 -0.13419,0.0346 -0.20129,0.0519 -0.37676,0.0911 -0.76051,0.15526 -1.14795,0.17336 -0.11963,0.005 -0.20061,0.004 -0.30117,-0.0609 -0.0665,-0.0534 -0.1178,-0.0602 -0.20204,-0.0658 -0.11119,-0.002 -0.22228,0.006 -0.33326,0.0118 -0.11063,0.002 -0.21839,-0.0233 -0.32219,-0.0593 -0.0615,-0.0273 -0.12464,-0.0492 -0.18975,-0.0661 -0.0528,-0.0159 -0.10759,-0.022 -0.16215,-0.0284 -0.14126,-0.0218 -0.28503,-0.0223 -0.42756,-0.0293 -0.2395,-0.0122 -0.47747,-0.0419 -0.71426,-0.0788 -0.17492,-0.0317 -0.34977,-0.0637 -0.52291,-0.1041 -0.0579,-0.0144 -0.15029,-0.0403 -0.21051,-0.0441 -0.0949,-0.006 -0.21863,0.009 -0.31011,0.0216 -0.1551,0.022 -0.26559,0.0465 -0.42079,0.0776 -0.33888,0.0689 -0.67819,0.14125 -1.02223,0.17953 -0.10888,0.0193 -0.21127,-0.009 -0.31714,-0.0293 -0.14372,-0.0239 -0.26483,0.0122 -0.39911,0.0568 -0.0816,0.0283 -0.16425,0.0524 -0.2507,0.0575 -0.058,-7.9e-4 -0.11497,-0.0101 -0.17293,-0.006 -0.0777,0.0127 -0.15347,0.0333 -0.23147,0.0446 -0.10919,0.0101 -0.21937,0.0157 -0.32903,0.0112 -0.0674,-0.0102 -0.13408,-0.0128 -0.20209,-0.009 -0.0886,0.004 -0.17708,0.01 -0.26553,0.0166 -0.1134,0.009 -0.22598,0.0275 -0.33968,0.0316 0.0121,-0.001 -0.0867,-0.001 -0.0722,-0.0104 0.0147,-0.009 0.0335,-0.0104 0.0482,-0.0197 0.0334,-0.0211 0.0627,-0.0482 0.0952,-0.0706 0.043,-0.0297 0.0874,-0.0572 0.13115,-0.0858 -0.057,0.0348 -0.1323,0.0498 -0.17089,0.10426 -0.0309,0.0436 0.0959,-0.0473 0.14514,-0.0679 0.1226,-0.0514 0.2501,-0.0876 0.38248,-0.10173 0.0337,-0.004 0.0677,-0.004 0.10162,-0.005 0.1453,-0.003 0.26731,0.0234 0.39484,0.0917 0.024,0.0161 0.10719,0.0578 0.11636,0.0887 0.004,0.014 -0.0233,0.0257 -0.0273,0.0283 -0.15577,0.0943 0.17114,-0.0966 0.25306,-0.15067 0.0183,-0.0121 -0.0408,0.0163 -0.0618,0.0227 -0.0612,0.0188 -0.12378,0.0276 -0.18718,0.0341 -0.0546,0.001 -0.12068,0.003 -0.14317,-0.0557 -0.005,-0.0295 -0.003,-0.0137 -0.005,-0.0474 0,0 -0.35051,0.1828 -0.35051,0.1828 v 0 c 0.005,0.0404 0.001,0.0208 0.0102,0.0586 0.0354,0.0781 0.0922,0.0931 0.175,0.0937 0.24834,-0.016 0.49609,-0.1066 0.67155,-0.2966 0.004,-0.0126 0.0116,-0.0247 0.0125,-0.038 0.004,-0.0634 -0.0933,-0.1073 -0.13622,-0.13413 -0.042,-0.0234 -0.0649,-0.038 -0.11052,-0.0555 -0.0958,-0.0368 -0.20063,-0.0491 -0.30249,-0.0493 -0.0964,0.004 -0.12989,0.002 -0.22818,0.0201 -0.32526,0.0613 -0.60718,0.25011 -0.88756,0.41336 -0.041,0.0274 -0.19821,0.12661 -0.23717,0.17286 -0.0299,0.0355 -0.0457,0.0745 -0.005,0.10006 0.012,0.008 0.0595,0.008 0.0706,0.009 0.11535,0.001 0.22913,-0.0239 0.34399,-0.0321 0.0872,-0.005 0.1744,-0.01 0.26167,-0.0142 0.0673,-0.004 0.1333,-0.008 0.20011,0.005 0.11096,0.008 0.22265,-0.003 0.33363,-0.006 0.0774,-0.007 0.15256,-0.0236 0.22774,-0.0427 0.0604,-0.008 0.11229,-0.007 0.17316,0.001 0.0904,0.003 0.17638,-0.0195 0.26113,-0.05 0.0625,-0.0212 0.12569,-0.0483 0.19021,-0.0628 0.0645,-0.0145 0.13181,-0.0147 0.1973,-0.0101 0.0528,0.01 0.0641,0.0109 0.11379,0.0242 0.0143,0.004 0.0281,0.01 0.0427,0.0127 0.0563,0.0113 0.11579,0.003 0.17208,-0.001 0.34978,-0.044 0.69457,-0.12154 1.04022,-0.18942 0.15595,-0.0306 0.2565,-0.0527 0.41173,-0.0746 0.0719,-0.0101 0.21756,-0.0272 0.29595,-0.0239 0.0671,0.003 0.14597,0.0251 0.21045,0.0406 0.17211,0.0418 0.34495,0.0812 0.51965,0.11067 0.24049,0.0314 0.48139,0.0594 0.72344,0.0761 0.1372,0.01 0.27523,0.0159 0.41135,0.0363 0.0528,0.0102 0.10738,0.009 0.15934,0.0248 0.0641,0.019 0.13047,0.0305 0.19074,0.0615 0.10584,0.0412 0.21823,0.0644 0.33152,0.0718 0.1107,-0.004 0.22102,-0.0157 0.33186,-0.016 0.0691,0.004 0.1316,0.005 0.18713,0.0511 0.11072,0.076 0.19205,0.0828 0.3274,0.0731 0.39184,-0.0244 0.78002,-0.0894 1.16283,-0.17556 0.0659,-0.0162 0.13189,-0.0319 0.19766,-0.0486 0.0571,-0.0145 0.2303,-0.0629 0.29806,-0.0737 0.11126,-0.0178 0.22378,-0.005 0.33399,0.0127 0.0354,0.006 0.071,0.0119 0.10628,0.0192 0.15005,0.0311 0.29588,0.0841 0.45054,0.0913 0.44339,0.0134 0.88393,-0.0455 1.31753,-0.13605 0.08,-0.0171 0.16023,-0.0336 0.24016,-0.0513 0.0553,-0.0122 0.11561,-0.0115 0.16548,-0.0383 0.61378,-0.32979 0.48318,-0.26823 0.26921,-0.24268 -0.23412,0.0169 -0.17801,0.004 -0.49065,0.2206 -0.0149,0.0103 0.017,0.0352 0.0221,0.0399 0.0561,0.0366 0.11016,0.0782 0.17256,0.10336 0.0117,0.004 0.023,0.009 0.0351,0.011 0.17176,0.0309 0.42562,-0.27898 0.50033,-0.23632 0.0547,-0.0435 0.11287,-0.10363 0.0882,-0.17907 -0.005,-0.007 -0.01,-0.0151 -0.0162,-0.0212 -0.0572,-0.0543 -0.15347,-0.0132 -0.21731,-5e-5 -0.0721,0.0209 -0.0945,0.0264 -0.1675,0.0523 -0.0312,0.0111 -0.0637,0.0198 -0.0931,0.0352 -0.14071,0.0737 -0.2788,0.15236 -0.41643,0.23168 -0.0222,0.0128 -0.0441,0.0269 -0.0627,0.0445 -0.0123,0.0117 -0.0191,0.0281 -0.0287,0.0421 5.3e-4,0.0113 -0.002,0.0229 0.001,0.0338 0.0182,0.0689 0.11817,0.0705 0.17287,0.0815 0.0966,0.0141 0.19318,0.0131 0.29063,0.0105 0.13003,-0.002 0.26008,-0.003 0.39005,-0.007 0.14002,-0.005 0.27969,-0.004 0.41974,-0.005 0.20434,-0.0138 0.40926,-0.0267 0.61093,-0.0643 0.0191,-0.002 0.12519,-0.012 0.1464,-0.0127 0.0901,-0.003 0.18051,0.007 0.27063,0.004 0.25455,-0.001 0.50896,-0.0121 0.76056,-0.0543 0.15282,-0.0239 0.30377,-0.0503 0.45454,-0.0851 0.0328,-0.008 0.0677,-0.009 0.0984,-0.0235 0.13485,-0.062 0.27206,-0.12201 0.39588,-0.20387 0.014,-0.009 -0.01,-0.0321 -0.0147,-0.0482 -0.0272,-0.006 -0.054,-0.002 -0.0818,5.3e-4 -0.0526,0.004 -0.10517,0.009 -0.15773,0.0138 -0.14165,0.0128 -0.2847,0.0278 -0.4268,0.0139 -0.0875,-0.0112 -0.17362,-0.0353 -0.26215,-0.0354 -0.20477,-0.002 -0.40958,-2.6e-4 -0.61423,0.007 -0.1659,0.008 -0.33169,0.0173 -0.49746,0.0279 -0.0642,0.004 -0.15415,0.0115 -0.221,0.0124 -0.021,2.6e-4 -0.042,-0.001 -0.063,-0.002 -0.0999,-0.003 -0.2,-0.008 -0.29902,-0.0223 -0.11464,-0.004 -0.22901,-0.0136 -0.34336,-0.0226 -0.17571,-0.0126 -0.35149,-0.0148 -0.52576,0.0166 -0.16205,0.0298 -0.32284,0.0678 -0.48712,0.0841 -0.1127,0.0166 -0.22576,0.0442 -0.3402,0.0354 -0.0883,-0.006 -0.17622,-0.0166 -0.2629,-0.0347 -0.12248,-0.021 -0.24203,-0.0558 -0.3641,-0.0791 -0.12457,-0.0208 -0.25281,-0.0411 -0.37889,-0.0236 -0.14926,0.0126 -0.29972,0.003 -0.4493,0.0107 -0.13532,0.004 -0.27036,0.0127 -0.40559,0.0162 -0.16303,10e-4 -0.32609,5.3e-4 -0.48907,0.005 -0.14833,0.005 -0.29584,0.016 -0.44205,0.0431 -0.16778,0.0178 -0.33068,0.0368 -0.49365,0.0832 -0.14883,0.0296 -0.29755,0.0644 -0.45033,0.0622 -0.21638,0.008 -0.43288,0.0189 -0.64943,0.0119 -0.0838,-0.001 -0.16752,-0.002 -0.25125,7.9e-4 -0.11884,0.003 -0.23763,0.008 -0.35628,0.0152 -0.14284,0.009 -0.28568,0.009 -0.42877,0.011 -0.28455,0.006 -0.56919,0.0121 -0.85381,0.008 -0.0947,-0.002 -0.10169,-5.3e-4 -0.1835,-0.009 -0.0133,-0.001 -0.1058,-0.017 -0.10595,-0.017 -0.12347,0.0611 -0.24122,0.13317 -0.36182,0.19975 -0.002,0.008 -0.008,0.0147 -0.007,0.0226 0.003,0.0712 0.10545,0.0497 0.14832,0.0486 0.12018,-0.0138 0.24034,-0.027 0.36084,-0.0373 0.0986,-0.0117 0.19688,-0.0153 0.29612,-0.008 0.0465,0.003 0.0936,0.004 0.13963,0.0113 0.0356,0.006 0.0221,0.007 0.0603,0.0118 0.0145,0.002 0.029,0.003 0.0436,0.004 0.25305,-0.005 0.50275,-0.0494 0.75278,-0.085 0.18932,-0.0306 0.2431,-0.0382 0.4316,-0.0728 0.0622,-0.0114 0.12738,-0.0126 0.18614,-0.0359 0.16146,-0.0639 0.31703,-0.14241 0.47036,-0.22391 0.027,-0.0144 0.054,-0.0347 0.0677,-0.0621 0.008,-0.0168 -0.006,-0.0372 -0.009,-0.0558 -0.17044,-0.16529 -0.34961,-0.32416 -0.56254,-0.43314 -0.15707,-0.0686 -0.18843,-0.0882 -0.36246,-0.13673 -0.43807,-0.12208 -0.89452,-0.14422 -1.3467,-0.15377 -0.42003,0.006 -0.56439,0.002 -0.99023,0.038 -0.79409,0.068 -1.57824,0.21901 -2.36107,0.36279 -0.58949,0.11691 -1.17754,0.2367 -1.76266,0.37407 -0.1258,0.0295 -0.25115,0.061 -0.37672,0.0915 -0.0688,0.0167 -0.14149,0.0217 -0.20632,0.0501 -0.13748,0.0602 -0.26419,0.14256 -0.39628,0.21384 0.005,0.0107 0.007,0.0229 0.0145,0.0322 0.004,0.005 0.10343,0.0413 0.1158,0.0425 0.0742,0.019 0.15113,0.0281 0.2233,0.0556 0.0765,0.021 0.15361,0.0385 0.22623,0.0713 0.042,0.0109 0.0807,0.032 0.12545,0.0331 0.057,-0.001 0.11424,-0.003 0.17065,-0.0117 0.0394,-0.0102 0.0764,-0.0266 0.11675,-0.0336 0.0509,-4e-5 0.10185,-10e-5 0.15277,3e-5 0.0515,2.2e-4 0.10305,8e-4 0.15458,5.3e-4 0.0563,-5.3e-4 0.11298,-7.9e-4 0.1685,-0.0118 0.0945,-0.0194 0.18655,-0.049 0.28074,-0.07 0.0882,-0.0264 0.18007,-0.0562 0.27307,-0.0465 0.0793,0.01 0.15736,0.0298 0.23782,0.0292 0.14836,0.001 0.29691,-0.0149 0.44331,-0.0379 0.14994,-0.023 0.30199,-0.0519 0.45411,-0.0344 0.11979,0.015 0.23684,0.0477 0.35776,0.0527 0.0646,-0.002 0.088,1e-4 0.15183,-0.0121 0.11561,-0.022 0.22528,-0.0696 0.33912,-0.0982 0.13036,-0.0333 0.26141,-0.0549 0.39652,-0.0466 0.0867,-1.5e-4 0.1735,-0.003 0.25978,-0.0116 0.067,-0.009 0.13098,-0.0294 0.19452,-0.0522 0.0766,-0.0177 0.1357,-0.0356 0.21674,-0.0238 0.13421,0.008 0.26752,0.0237 0.40078,0.0412 0.17107,0.0262 0.34338,0.0582 0.50338,0.1265 0.002,-7e-5 0.007,-0.002 0.007,-2e-4 -5.3e-4,0.002 -0.005,-1.8e-4 -0.007,5.3e-4 -0.004,0.002 -0.0163,0.009 -0.0123,0.007 0.10585,-0.0603 0.212,-0.12003 0.31769,-0.1806 0.0215,-0.0123 -0.0941,0.0526 -0.0685,0.0289 -0.0911,0.0222 -0.18068,0.0344 -0.27407,0.0418 -0.0575,0.004 -0.11431,0.0122 -0.17113,0.0214 -0.0602,-2.6e-4 -0.12039,-0.003 -0.17784,-0.0234 -0.12489,-0.0452 -0.23927,-0.11227 -0.35249,-0.18101 -0.11802,-0.0688 -0.24131,-0.12685 -0.37362,-0.16298 -0.16794,-0.0575 -0.34033,-0.10927 -0.51978,-0.10509 -0.11067,0.003 -0.16289,0.002 -0.27629,0.0124 -0.28766,0.0263 -0.57181,0.0832 -0.85553,0.13524 -0.0183,0.004 -0.35425,0.0734 -0.39634,0.0927 -0.14695,0.0674 -0.2925,0.14031 -0.42682,0.23027 -0.0132,0.009 0.004,0.0349 0.0159,0.045 0.0262,0.0217 0.0787,-0.0211 0.10202,0.003 0.0938,0.002 0.18759,0.004 0.28133,0.008 0.20066,0.007 0.40132,0.0115 0.60197,-1.9e-4 0.13795,-0.005 0.27603,-0.008 0.41389,-0.0152 0.0473,-0.002 0.0942,-0.009 0.14149,-0.0108 0.0102,-2.7e-4 0.0204,0.002 0.0306,0.002 0.11349,-0.0757 0.22959,-0.14767 0.34047,-0.22716 0.007,-0.005 -0.0117,-0.0107 -0.0324,-0.0168 -0.0503,-0.0146 -0.10105,-0.0278 -0.14761,-0.0528 -0.0463,-0.0231 -0.0752,-0.0359 -0.11866,-0.0636 -0.0289,-0.0184 -0.0744,-0.064 -0.10766,-0.0735 -0.0159,-0.005 -0.033,-0.003 -0.0495,-0.004 -0.0243,0.003 -0.0489,0.005 -0.0729,0.0102 -0.0649,0.0145 -0.18749,0.0566 -0.24342,0.076 -0.21816,0.0759 -0.43322,0.16053 -0.65298,0.23191 -0.0816,0.0275 -0.16307,0.0553 -0.24469,0.0826 -0.0635,0.0213 -0.13226,0.0307 -0.1907,0.0634 -0.70107,0.39284 -0.45735,0.27963 -0.20468,0.22074 0.18405,-0.0418 0.36832,-0.0826 0.55393,-0.11698 0.11879,-0.022 0.21351,-0.0395 0.33223,-0.0469 0.0319,-0.002 0.0638,-3e-5 0.0958,-5e-5 0.0107,-5.3e-4 0.0215,-0.001 0.0323,-0.002 -0.002,-10e-4 -0.006,-0.003 -0.004,-0.004 0.10303,-0.0601 0.2085,-0.11602 0.3119,-0.17553 0.0136,-0.008 -0.0277,0.0152 -0.0425,0.0205 -0.0507,0.0182 -0.0721,0.0167 -0.12723,0.0225 -0.16639,-0.009 -0.32524,-0.0438 -0.46838,-0.13299 0,0 -0.33431,0.21145 -0.33431,0.21145 z" />
    <path
       style="fill:rgb(85, 33, 33);fill-opacity:1;stroke-width:0.264583"
       id="path14186"
       d="m 154.41718,185.01506 c 0.0262,0.0721 0.0418,0.14732 0.0515,0.22324 0.006,0.0564 -0.005,0.11304 -0.0111,0.16918 -0.002,0.007 -0.003,0.0141 -0.006,0.0206 -0.009,0.0202 -0.0593,0.0384 -0.0408,0.0273 0.30218,-0.18058 0.44149,-0.23438 0.3084,-0.18212 -0.0516,0.007 -0.0902,-0.0188 -0.12635,-0.0522 -0.006,-0.006 -0.0116,-0.0123 -0.0174,-0.0185 0,0 -0.33823,0.20535 -0.33823,0.20535 v 0 c 0.006,0.007 0.0124,0.0138 0.0186,0.0206 0.0405,0.04 0.085,0.0764 0.14411,0.0807 0.15763,0.0213 0.0265,0.008 0.38067,-0.19846 0.0246,-0.0144 0.0267,-0.0557 0.0313,-0.0794 0.006,-0.0588 0.0156,-0.1183 0.006,-0.17719 -0.0123,-0.0779 -0.031,-0.15451 -0.0538,-0.23003 0,0 -0.3467,0.19093 -0.3467,0.19093 z" />
    <path
       style="fill:rgb(85, 33, 33);fill-opacity:1;stroke-width:0.264583"
       id="path16940"
       d="m 145.57602,142.40701 c 0.0673,0.28346 0.11701,0.57624 0.23315,0.8455 0.0208,0.0484 0.0484,0.0935 0.0726,0.14031 0.0385,0.0369 0.0699,0.0829 0.1154,0.11058 0.13147,0.0798 0.371,0.12439 0.50638,0.15198 0.32769,0.0668 0.65955,0.11252 0.9905,0.15936 0.14554,0.009 0.34215,0.0337 0.48885,-0.005 0.0881,-0.0234 0.17355,-0.0602 0.25168,-0.10727 0.18274,-0.11003 0.35955,-0.23074 0.52768,-0.36201 0.12987,-0.1014 0.43932,-0.43291 0.55455,-0.55324 0.19599,-0.19985 0.37883,-0.41076 0.55288,-0.62964 0,0 -0.26347,0.11268 -0.26347,0.11268 v 0 c -0.17166,0.21644 -0.35152,0.42553 -0.54474,0.62333 -0.0888,0.0923 -0.17526,0.18699 -0.26645,0.27698 -0.0946,0.0934 -0.19924,0.17661 -0.29084,0.27297 -0.0219,0.0231 -0.021,0.0651 -0.0474,0.0828 -0.22703,0.15242 -0.47219,0.14936 -0.73261,0.12619 -0.33095,-0.0445 -0.66224,-0.089 -0.98943,-0.15693 -0.11256,-0.0234 -0.37247,-0.0759 -0.49028,-0.14454 -0.0433,-0.0253 -0.0737,-0.0682 -0.11049,-0.10223 -0.024,-0.0454 -0.0514,-0.0892 -0.072,-0.13623 -0.11746,-0.26788 -0.16588,-0.56083 -0.22582,-0.84493 0,0 -0.26017,0.13956 -0.26017,0.13956 z" />
    <path
       style="fill:rgb(85, 33, 33);fill-opacity:1;stroke-width:0.264583"
       id="path16942"
       d="m 151.6382,137.25662 c 0.002,0.15101 7.9e-4,0.30203 5.3e-4,0.45304 -0.0183,0.14274 -0.0307,0.284 -0.024,0.42787 0.0161,0.18494 0.0619,0.10451 0.28277,-0.1042 0.001,-0.001 0.004,-0.0939 0.004,-0.11344 0.002,-0.13497 0.002,-0.26996 0.002,-0.40494 -3e-5,-0.0993 -1e-4,-0.19867 -1.4e-4,-0.29801 0.006,-0.22624 -0.28644,-0.0447 -0.3064,0.12868 0.013,0.12989 0.0253,0.25977 0.0333,0.39011 0.006,0.11018 0.008,0.22055 0.008,0.33089 2.6e-4,0.0939 -7e-5,0.18788 1.2e-4,0.28182 1.5e-4,0.1386 5.3e-4,0.2772 7.9e-4,0.41581 2.1e-4,0.14322 -2.6e-4,0.28644 -7.9e-4,0.42966 -2.3e-4,0.0977 -2.7e-4,0.1953 -2.7e-4,0.29295 -2e-5,0.091 -1e-5,0.18205 -1e-5,0.27307 0.006,0.11107 -0.0151,0.22048 -0.028,0.33036 -0.01,0.10453 -0.0214,0.20979 -0.0109,0.31453 0.0167,0.11989 0.0281,0.24024 0.0342,0.3611 0.005,0.12724 0.005,0.25461 0.005,0.38194 -7e-5,0.10295 -5.3e-4,0.20591 -2.7e-4,0.30887 4e-5,0.10327 -1.1e-4,0.20654 -1.9e-4,0.30981 -6e-5,0.0931 -7e-5,0.18625 -8e-5,0.27937 -1.1e-4,0.0982 2e-4,0.19646 2.1e-4,0.29469 -6e-5,0.10842 1e-4,0.21684 1e-5,0.32526 0.006,0.14048 0.0249,0.28036 0.0344,0.42086 0.0106,0.20213 0.0116,0.4046 0.0126,0.60696 -0.007,0.17289 0.0104,0.34446 0.0275,0.51615 0.0238,0.11473 0.0442,0.22979 0.0545,0.34654 0.007,0.0989 0.009,0.19816 0.008,0.29729 -1.3e-4,0.002 -0.002,0.006 -5.3e-4,0.005 0.31009,-0.19437 0.27942,-0.10036 0.21739,-0.33956 -0.0304,-0.10752 -0.0318,-0.21951 -0.0472,-0.32933 -0.0206,-0.14056 -0.0543,-0.27829 -0.0719,-0.41944 -0.0148,-0.13369 -0.0196,-0.26717 -0.003,-0.4006 0.0172,-0.11198 0.0253,-0.22505 0.0293,-0.33819 0.002,-0.20565 0.001,-0.41133 0.002,-0.617 5.3e-4,-0.0731 2.2e-4,-0.14617 0.001,-0.21925 1.3e-4,-0.0113 2.6e-4,-0.0226 5.3e-4,-0.0339 9e-5,-0.004 0.004,-0.0155 5.2e-4,-0.0133 -0.0859,0.0511 -0.16797,0.1085 -0.25195,0.16275 0.0777,0.18082 0.10044,0.37721 0.12498,0.57064 0.0224,0.23696 0.0565,0.47256 0.0778,0.70964 -0.002,0.12708 -0.0168,0.25353 -0.0249,0.38033 -0.0216,0.10282 -0.0295,0.20853 -0.053,0.31079 -0.0228,0.0545 -0.0149,0.11965 -0.0358,0.17422 -0.002,0.006 -0.008,0.0105 -0.0125,0.0157 0.0806,-0.0554 0.16129,-0.11082 0.24193,-0.16623 -0.008,-0.0156 -0.0178,-0.0304 -0.0243,-0.0467 -0.0214,-0.0541 -0.0387,-0.13652 -0.0491,-0.18935 -0.0365,-0.18522 -0.0586,-0.372 -0.0804,-0.55937 -0.0158,-0.24672 -0.0535,-0.49097 -0.0792,-0.73661 -0.0145,-0.1638 -0.0171,-0.32831 -0.0182,-0.49264 0.003,-0.112 -0.007,-0.22477 0.006,-0.33616 0.0227,-0.14135 0.0296,-0.28421 0.034,-0.42707 0.005,-0.20307 0.005,-0.40625 0.005,-0.60937 5.3e-4,-0.17503 5.3e-4,-0.35006 8e-4,-0.52509 -0.006,-0.12644 0.0162,-0.2511 0.0282,-0.37653 0.0127,-0.11077 0.0152,-0.23218 0.0667,-0.33346 0.005,-0.004 0.01,-0.007 0.0147,-0.0108 -0.0837,0.0503 -0.17096,0.0951 -0.25096,0.15102 -0.002,0.002 0.0208,0.0837 0.0302,0.11777 0.0336,0.0877 0.0504,0.17851 0.10305,0.25772 0.002,0.002 0.0311,0.0335 0.0414,0.0279 0.40599,-0.21842 0.33607,-0.25222 -0.002,-0.0218 -0.0103,0.007 -0.005,0.0245 -0.007,0.0367 -0.0164,0.11702 -0.0128,0.23574 -0.0127,0.35356 2.6e-4,0.19585 -2.4e-4,0.39169 -7.9e-4,0.58754 -2.7e-4,0.10877 -5.3e-4,0.21754 -5.3e-4,0.32631 -4e-5,0.0909 -3e-5,0.18181 -3e-5,0.27272 0,0.0911 0,0.18227 1e-5,0.27341 5e-5,0.11542 5.3e-4,0.23083 7.9e-4,0.34625 -10e-6,0.13126 -2.6e-4,0.26251 -1.6e-4,0.39377 5.3e-4,0.142 -2e-5,0.28401 1e-5,0.42601 5.3e-4,0.13774 7e-5,0.27549 -2.2e-4,0.41323 -5.3e-4,0.12148 -5e-5,0.24296 7.9e-4,0.36443 0.004,0.2575 -0.004,0.51557 -0.033,0.77157 -0.0201,0.1607 -0.0316,0.32229 -0.0427,0.48381 0,0 0.26192,-0.13125 0.26192,-0.13125 v 0 c 0.0106,-0.16124 0.023,-0.32237 0.0431,-0.48277 0.0254,-0.25744 0.0345,-0.5164 0.0331,-0.77505 7.9e-4,-0.12177 0.002,-0.24355 7.9e-4,-0.36533 -2.6e-4,-0.13766 -7.9e-4,-0.27533 -2.2e-4,-0.413 3e-5,-0.14201 -5.3e-4,-0.28402 1e-5,-0.42603 2.3e-4,-0.1312 -1.4e-4,-0.2624 -1.6e-4,-0.3936 2.6e-4,-0.11566 5.3e-4,-0.23132 7.9e-4,-0.34698 0,-0.0911 10e-6,-0.18228 10e-6,-0.27342 1e-5,-0.0909 2e-5,-0.18179 -6e-5,-0.27268 -1.3e-4,-0.10852 -5.3e-4,-0.21704 -0.001,-0.32556 -0.001,-0.19556 -0.002,-0.39113 -5.3e-4,-0.5867 0.002,-0.11667 -5.3e-4,-0.23454 0.0186,-0.35002 0.003,-0.0116 0.0195,-0.0375 0.008,-0.0348 -0.16973,0.0393 -0.52374,0.22695 -0.0246,-0.0259 0.008,-0.004 -0.0431,0.0375 -0.0269,-0.003 -0.0529,-0.075 -0.0651,-0.16493 -0.098,-0.24919 -0.004,-0.0157 -0.0316,-0.1324 -0.0367,-0.13081 -0.2621,0.0812 -0.23138,0.0352 -0.28977,0.13913 -0.0415,0.10815 -0.0495,0.22679 -0.0608,0.34108 -0.013,0.12615 -0.0342,0.25176 -0.0267,0.37906 5.3e-4,0.17466 8e-4,0.34932 0.001,0.52397 -2.7e-4,0.20303 -5.3e-4,0.40611 -0.006,0.60907 -0.006,0.14264 -0.0147,0.28505 -0.0369,0.42625 -0.01,0.11258 -0.003,0.22593 -0.004,0.33885 0.002,0.16499 0.006,0.33012 0.0207,0.49456 0.027,0.24477 0.0684,0.48777 0.0853,0.73373 0.0179,0.1528 0.0271,0.24175 0.0497,0.39395 0.0179,0.12059 0.0326,0.2529 0.0771,0.36805 0.007,0.0181 0.0174,0.0347 0.0261,0.052 0.36281,-0.13773 0.26759,-0.0416 0.32973,-0.30532 0.0205,-0.10402 0.0333,-0.2097 0.0504,-0.31432 0.008,-0.12791 0.0251,-0.25564 0.0216,-0.38397 -0.024,-0.23652 -0.0598,-0.47163 -0.0823,-0.70831 -0.0247,-0.19758 -0.0461,-0.39819 -0.12298,-0.58383 -0.0913,0.0405 -0.18414,0.0775 -0.27374,0.12147 -0.004,0.002 5.2e-4,0.008 5.2e-4,0.0127 2.7e-4,0.0111 5.3e-4,0.0221 5.3e-4,0.0332 10e-4,0.0727 8e-4,0.14535 10e-4,0.21802 5.3e-4,0.20571 0.002,0.41148 -0.005,0.61712 -0.005,0.11244 -0.0135,0.22468 -0.0302,0.33607 -0.0149,0.13555 -0.008,0.27134 0.006,0.40682 0.0186,0.14105 0.0528,0.27887 0.0717,0.41974 0.014,0.11122 0.0174,0.22413 0.0484,0.33271 0.0591,0.23183 -0.0267,0.20581 0.30993,0.0576 -0.003,-0.0995 -0.002,-0.19917 -0.0108,-0.29843 -0.0108,-0.11676 -0.0325,-0.23164 -0.0551,-0.34662 -0.0181,-0.17045 -0.0354,-0.34083 -0.0281,-0.51261 -0.001,-0.20307 -0.003,-0.40619 -0.0124,-0.60907 -0.009,-0.14009 -0.0286,-0.27964 -0.0319,-0.41993 -8e-5,-0.10842 8e-5,-0.21685 2e-5,-0.32528 1e-5,-0.0983 2.7e-4,-0.1966 2.1e-4,-0.2949 -1e-5,-0.0931 -3e-5,-0.18619 -8e-5,-0.27929 -6e-5,-0.10323 -1.7e-4,-0.20646 1e-5,-0.30969 2.6e-4,-0.10292 2.1e-4,-0.20584 -4e-5,-0.30876 -5.3e-4,-0.12775 -7.9e-4,-0.25555 -0.006,-0.38322 -0.007,-0.12121 -0.019,-0.24176 -0.0343,-0.36219 -0.007,-0.10309 0.003,-0.20638 0.0133,-0.30901 0.0133,-0.11097 0.0329,-0.22159 0.0271,-0.33383 1e-5,-0.091 1e-5,-0.18204 -1e-5,-0.27306 -3e-5,-0.0975 -8e-5,-0.19508 -2.6e-4,-0.29263 -2.7e-4,-0.14299 -7.9e-4,-0.28598 -5.3e-4,-0.42898 1.3e-4,-0.13888 5.3e-4,-0.27776 0.001,-0.41664 2.6e-4,-0.094 5.3e-4,-0.18808 -1e-4,-0.28211 -0.001,-0.11066 -0.003,-0.22134 -0.0103,-0.3318 -0.009,-0.12866 -0.0226,-0.25701 -0.0289,-0.3857 0.0304,-0.19273 -0.25598,0.18863 -0.24292,0.0663 9e-5,-7.9e-4 0.007,0.002 0.0128,0.0329 0.002,0.0128 0.003,0.0257 0.005,0.0386 1.2e-4,0.0992 2.6e-4,0.19847 7.9e-4,0.2977 5.3e-4,0.13467 0.002,0.26938 -0.002,0.40401 -8e-4,0.0195 -10e-4,0.039 -0.002,0.0585 -0.001,0.0178 -0.0212,0.0573 -0.004,0.0534 0.2968,-0.0673 0.25883,-0.0291 0.24664,-0.16341 -0.007,-0.1435 0.0112,-0.28409 0.0248,-0.42672 -2.6e-4,-0.15116 -0.001,-0.30234 5.3e-4,-0.4535 0,0 -0.26464,0.13484 -0.26464,0.13484 z" />
    <path
       style="fill:rgb(85, 33, 33);fill-opacity:1;stroke-width:0.264583"
       id="path16946"
       d="m 137.79873,179.43551 c 0.3722,0.0422 0.74178,0.1028 1.10916,0.17533 0.13559,0.0216 0.27826,0.0481 0.41579,0.0234 0.0686,-0.0123 0.13508,-0.0342 0.20258,-0.0515 0.33483,-0.0809 0.67207,-0.14824 1.0134,-0.19476 0.47803,-0.0617 0.9595,-0.0779 1.44079,-0.0904 0.85212,-0.009 1.70428,0.002 2.55649,-0.002 0.67613,-0.004 1.35226,-0.007 2.02839,-0.009 0.66111,-0.021 1.3224,-0.016 1.9837,-0.0117 0.8019,0.0105 1.60314,0.0455 2.40454,0.0735 0.46434,0.0214 0.9294,0.0188 1.39382,0.0356 0.38011,0.0199 0.75771,0.063 1.13472,0.11365 0.18485,0.0165 0.36587,0.0538 0.54752,0.0895 0.0887,0.0175 0.17898,0.0213 0.26906,0.0231 0.24094,0.003 0.13677,0.0322 0.39534,-0.17478 -0.31673,-0.0169 -0.63149,-0.0598 -0.9466,-0.0948 -0.17299,-0.0196 -0.34643,-0.035 -0.52043,-0.0413 -0.10866,-0.006 -0.21629,-5.3e-4 -0.32431,0.0107 -0.17767,0.0197 -0.35662,0.0213 -0.5346,0.0361 -0.19763,0.0216 -0.39595,0.0334 -0.59459,0.0395 -0.23639,0.003 -0.47245,0.006 -0.70856,0.0186 -0.2267,0.0149 -0.45356,0.0249 -0.68069,0.0294 -0.21344,0.003 -0.42691,0.003 -0.64037,0.004 -0.25359,-0.0124 -0.50471,0.0223 -0.75634,0.0473 -0.24756,0.0332 -0.49553,0.0314 -0.74436,0.0217 -0.23474,-0.0141 -0.46962,-0.0192 -0.70473,-0.0208 -0.27843,-0.003 -0.55687,-0.003 -0.83532,-0.003 -0.21223,-8e-5 -0.42446,-0.001 -0.63669,-5.3e-4 -0.21453,0.002 -0.42907,-0.004 -0.64345,0.005 -0.26115,0.007 -0.5197,0.0439 -0.77993,0.0629 -0.24341,0.0209 -0.48622,0.0186 -0.72958,0.003 -0.18248,-0.005 -0.36342,-0.0216 -0.54448,-0.0434 -0.20543,-0.0171 -0.4116,-0.0231 -0.61765,-0.0266 -0.23203,-10e-4 -0.46406,-10e-4 -0.69609,-0.002 -0.18348,5.3e-4 -0.36697,-1.8e-4 -0.55046,-2.6e-4 -0.21401,10e-4 -0.42803,5.3e-4 -0.64204,5.3e-4 -0.28393,0.0139 -0.56784,0.0278 -0.85195,0.0374 -0.17653,0.006 -0.35315,0.007 -0.52976,0.008 -0.16314,0.0112 -0.32581,0.0276 -0.48909,0.037 -0.17806,0.008 -0.35633,0.008 -0.53453,0.009 -0.14647,0.003 -0.29266,-0.0173 -0.4337,-0.056 -0.11157,-0.0436 -0.12691,-0.0741 -0.078,-0.1825 0.0427,-0.0821 0.0594,-0.17458 0.13648,-0.23188 -0.42565,0.25834 -0.24462,0.11938 -0.14195,0.10636 0.0657,-0.008 0.13164,0.008 0.19588,0.0192 0.12983,0.0145 0.25085,0.0569 0.37288,0.10041 0.0936,0.042 0.17501,0.0958 0.27611,0.11905 0.15996,0.0273 0.3212,0.0138 0.48146,-7.9e-4 0.10237,-0.0129 0.20593,-0.0112 0.30832,-0.0225 0.1197,-0.0257 0.24163,-0.0326 0.36323,-0.0434 0.31604,-0.0281 0.63341,-0.0362 0.95051,-0.0424 0.32159,-0.005 0.64322,-0.005 0.96484,-0.006 0.36884,4e-5 0.73768,-2.3e-4 1.10652,1.4e-4 0.24396,0.001 0.48671,0.0343 0.73057,0.0339 0.1536,-0.009 0.30678,-0.0213 0.46059,-0.0266 0.31669,-0.007 0.6335,-0.007 0.95026,-0.007 0.36636,-5.3e-4 0.73274,0.003 1.09901,-0.006 0.46704,-0.0184 0.93429,-0.0288 1.40163,-0.035 0.26515,-0.003 0.53033,-0.003 0.7955,-0.004 0.21409,-2.7e-4 0.42819,5.3e-4 0.64228,-1.6e-4 0.25211,-0.001 0.50172,0.0316 0.75106,0.0642 0.13644,0.0198 0.27412,0.0253 0.41176,0.0276 0.14115,0.002 0.28231,10e-4 0.42347,8e-4 0.19186,0.005 0.38299,-0.008 0.57425,-0.0209 0.16933,-0.0121 0.33895,-0.0194 0.50867,-0.0232 0.12072,-0.002 0.24146,-0.002 0.3622,-0.002 0.1254,-0.007 0.24923,0.0127 0.3734,0.0264 0.1369,0.013 0.27447,0.0166 0.41189,0.0187 0.21409,0.011 0.42541,0.0497 0.63879,0.0697 0.16368,0.0148 0.32792,0.0203 0.49218,0.0224 0.0726,0.011 0.17048,0.003 0.22909,0.0443 -0.10763,-0.0389 -0.0119,0.003 0.19641,-0.1414 0.0146,-0.0101 -0.0341,0.01 -0.0512,0.0148 -0.0217,0.006 -0.0434,0.0119 -0.0651,0.0173 -0.0715,0.0179 -0.0774,0.0183 -0.14986,0.033 -0.12109,0.024 -0.24408,0.0342 -0.36721,0.0392 -0.12328,0.008 -0.24542,-0.005 -0.36734,-0.0216 -0.15861,-0.0286 -0.31796,-0.0496 -0.47873,-0.0604 -0.11527,-0.007 -0.23078,-0.008 -0.34622,-0.008 -0.12019,-1.3e-4 -0.24038,7.9e-4 -0.36056,7.9e-4 -0.18719,-6e-5 -0.37438,0.001 -0.56158,8e-4 -0.17441,-8e-4 -0.34882,2e-5 -0.52323,-5.3e-4 -0.13864,-0.002 -0.1585,0.007 -0.28073,0.1962 -0.0132,0.0204 0.23155,0.048 0.24263,0.0493 0.16622,0.0163 0.3333,0.0192 0.50018,0.0207 0.11573,5.3e-4 0.23146,-6e-5 0.34719,-2.6e-4 0.10134,7.9e-4 0.20273,-0.003 0.30385,0.004 0.14877,0.0159 0.29789,0.0277 0.44729,0.0355 0.11324,0.006 0.22663,0.006 0.33996,0.006 0.10967,-4e-5 0.21933,-9e-5 0.32899,-1.1e-4 0.12901,0.001 0.10316,0.008 0.2617,-0.17491 0.0123,-0.0142 -0.0375,2.6e-4 -0.0562,2.6e-4 -0.0532,2.7e-4 -0.0991,2.7e-4 -0.15261,5.3e-4 -0.17275,7e-5 -0.3455,-9e-5 -0.51825,2.7e-4 -0.182,2e-5 -0.364,-5.3e-4 -0.546,6e-5 -0.25763,-0.006 -0.5144,0.007 -0.7715,0.0208 -0.21355,0.0115 -0.42728,0.0191 -0.6411,0.0227 -0.1375,0.002 -0.27502,0.002 -0.41253,0.002 -0.15673,-5.3e-4 -0.31347,-1.5e-4 -0.4702,-2.6e-4 -0.15921,-5.3e-4 -0.31841,7e-5 -0.47762,5.3e-4 -0.18409,-1.2e-4 -0.36817,-5.3e-4 -0.55226,-1.8e-4 -0.28931,0.002 -0.57824,0.004 -0.86722,-0.0115 -0.23465,-0.0178 -0.46976,-0.0261 -0.70499,-0.0307 -0.26959,-0.002 -0.53921,-0.003 -0.80881,-0.003 -0.18957,0.006 -0.37821,0.0264 -0.56754,0.0366 -0.20839,0.008 -0.41701,0.009 -0.62554,0.01 -0.17799,0.001 -0.35549,0.002 -0.53289,-0.0125 -0.20352,-0.0116 -0.40627,-0.0296 -0.60905,-0.0502 -0.13695,-0.004 -0.27014,-0.0349 -0.40508,-0.0546 -0.0955,-0.0129 -0.19192,-0.0135 -0.28783,-0.0208 -0.0708,0.0582 -0.14956,0.10775 -0.21232,0.17449 -0.0112,0.0119 0.0326,-5.3e-4 0.0489,-8e-4 0.0211,-1.9e-4 0.0422,-2.6e-4 0.0634,-2.6e-4 0.10186,-5.3e-4 0.20373,-5.3e-4 0.30559,-0.001 0.37336,-0.015 0.74668,-0.0296 1.12026,-0.038 0.2229,-0.003 0.44589,-0.009 0.66882,-0.006 0.0736,-0.0585 0.16342,-0.10094 0.22069,-0.17545 0.0176,-0.0229 -0.0578,7.9e-4 -0.0867,10e-4 -0.0527,5.3e-4 -0.10537,0.001 -0.15806,0.001 -0.2194,0.001 -0.43718,0.002 -0.65645,0.0122 -0.45097,0.0295 -0.90111,0.0712 -1.35159,0.10792 -0.29785,0.023 -0.59906,0.0467 -0.89638,0.008 -0.21108,-0.0457 -0.42209,-0.0909 -0.63195,-0.14199 -0.27474,-0.0626 -0.55788,-0.0669 -0.83825,-0.0725 -0.0634,-8e-4 -0.12686,-0.002 -0.19029,-0.002 -0.0544,-8e-4 -0.10876,-0.001 -0.16314,-0.002 -0.0359,-5.2e-4 -0.0719,-7.9e-4 -0.10778,-0.002 -0.008,-2e-4 -0.0172,-0.007 -0.0229,-0.002 -0.24057,0.21916 -0.23437,0.17677 -8e-4,0.18542 0.66625,-2.2e-4 1.33162,-0.0482 1.99723,-0.0749 0.55487,-0.0206 1.11013,-0.0261 1.66532,-0.0282 0.59601,-0.004 1.19203,-0.003 1.78805,-0.003 0.70496,-10e-4 1.40992,-8e-4 2.11488,4e-5 0.51687,-0.007 1.03346,-0.0259 1.55029,-0.0355 0.42843,-0.0173 0.85673,-0.0358 1.28542,-0.0453 0.38335,-0.007 0.76679,-0.008 1.15021,-0.008 0.13874,-0.0118 0.27614,0.0112 0.41355,0.0211 0.002,1.7e-4 -0.007,-0.003 -0.005,-0.004 0.0563,-0.0537 0.11574,-0.10409 0.17361,-0.15614 -0.81492,0.0512 -1.63103,0.0824 -2.44699,0.11173 -0.53727,0.0252 -1.07518,0.0202 -1.61264,0.006 -0.0426,-0.006 -0.48687,-0.0372 -0.35399,0.16943 0.0529,0.0822 0.1955,0.002 0.29324,0.003 0.3521,0.004 0.45891,0.006 0.81319,0.0107 0.11895,0.002 0.2379,0.004 0.35684,0.006 0.0844,0.002 0.16908,-10e-4 0.25321,0.006 0.0128,0.001 0.0346,0.031 0.0341,0.0181 -0.002,-0.0472 0.007,-0.12926 -0.0394,-0.13631 -0.18077,-0.0272 -0.36406,0.0338 -0.54631,0.0481 -0.22144,0.0173 -0.44316,0.031 -0.66474,0.0465 -0.55337,0.0374 -1.10754,0.0604 -1.66086,0.0986 -0.18938,0.013 -0.37938,0.0251 -0.56715,0.0539 -0.1013,0.0169 -0.058,0.006 -0.21041,0.17511 -0.0114,0.0127 0.0338,-0.007 0.0487,-0.0151 0.0988,-0.0539 0.19761,-0.10821 0.2913,-0.1705 0.01,-0.006 0.0131,-0.0203 0.0129,-0.0318 -1.5e-4,-0.0124 -0.009,-0.0231 -0.0138,-0.0347 -0.0178,-0.01 -0.0341,-0.0227 -0.0532,-0.0292 -0.14972,-0.0513 -0.39321,-0.0561 -0.54312,-0.0665 -0.25412,-0.0177 -0.39181,-0.0225 -0.64838,-0.0344 -0.63683,-0.0211 -1.27401,-0.0301 -1.91114,-0.0354 -0.37867,-0.0122 -0.75644,0.0112 -1.13384,0.0387 -0.42027,0.0324 -0.84175,0.0424 -1.26307,0.0487 -0.35356,0.004 -0.7069,-0.001 -1.06014,0.0157 -0.22267,0.0131 -0.44546,0.0232 -0.66845,0.0285 -0.16707,0.003 -0.33417,0.003 -0.50127,0.003 -0.13973,0.004 -0.2782,-0.0185 -0.41681,-0.0327 -0.11205,-0.001 -0.21372,-0.0286 -0.30517,-0.0931 0.012,0.007 -0.0374,-0.0307 -0.0243,-0.0379 0.009,-0.005 0.0389,-0.006 0.031,7.9e-4 -0.0608,0.0509 -0.16533,0.0627 -0.19485,0.1363 -0.0176,0.0438 0.0944,-0.003 0.14169,-0.004 0.088,-0.001 0.17608,-5.3e-4 0.26411,-5.3e-4 0.72003,0.0173 1.44051,0.0268 2.16013,0.0575 0.19312,0.0114 0.3865,0.0191 0.57946,0.0332 0.0287,0.002 0.0573,0.004 0.0859,0.008 0.002,2.6e-4 0.005,0.004 0.006,0.003 0.054,-0.0582 0.10474,-0.11937 0.15711,-0.17905 -0.5853,-0.009 -1.17061,-0.0164 -1.75595,-0.0213 -0.35294,-0.003 -0.70589,-0.005 -1.05885,-0.007 -0.13511,-8e-4 -0.27021,-8e-4 -0.40533,-8e-4 -0.0486,-0.003 -0.0981,0.005 -0.14635,-0.004 -0.0166,-0.003 -0.0598,-0.0186 -0.0442,-0.0251 -0.0715,0.0503 -0.15864,0.0837 -0.2146,0.15093 -0.019,0.0229 0.0595,-0.002 0.0893,-5.2e-4 0.0689,0.002 0.1376,0.008 0.20647,0.0109 0.44188,0.0159 0.88437,0.0173 1.32645,0.0218 1.36796,0.0216 2.73599,0.0376 4.10395,0.0587 0.93111,0.009 1.86239,0.0382 2.79363,0.0283 0.52979,-0.006 0.70669,-0.017 1.22609,-0.0389 0.76326,-0.0285 1.52036,-0.12655 2.27662,-0.22673 0.32597,-0.0451 0.64819,-0.11196 0.97263,-0.16624 0.28646,-0.0577 0.57364,-0.10828 0.86363,-0.14459 0.23606,-0.0314 0.47399,-0.0373 0.71175,-0.0402 0.19961,-0.01 0.39687,0.003 0.59309,0.0388 0.1574,0.0361 0.31577,0.067 0.47611,0.0864 0.11086,0.0175 0.22694,0.0312 0.32421,0.0908 0.0651,0.0536 0.12977,0.10749 0.19545,0.16035 0.0908,0.0742 0.20255,0.11409 0.31169,0.15273 0.19826,0.0585 0.14847,0.0992 0.35961,-0.11412 0.0109,-0.011 -0.0308,0.003 -0.0462,0.005 -0.11229,0.006 -0.22484,0.004 -0.33724,0.003 -0.28333,-0.0209 -0.55906,-0.0935 -0.83341,-0.16272 0,0 -0.23095,0.15901 -0.23095,0.15901 v 0 c 0.27152,0.0721 0.54392,0.14815 0.82413,0.17799 0.11282,7.9e-4 0.22567,0.002 0.33846,-8e-4 0.15413,-0.009 0.0671,0.004 0.33174,-0.17977 0.005,-0.003 -0.01,-0.007 -0.0152,-0.01 -0.0465,-0.0202 -0.0985,-0.0258 -0.14586,-0.0435 -0.10635,-0.0365 -0.21604,-0.0744 -0.30488,-0.14531 -0.0672,-0.0524 -0.13199,-0.10788 -0.19719,-0.1627 -0.0985,-0.0662 -0.21779,-0.0823 -0.33286,-0.10141 -0.16035,-0.0171 -0.31904,-0.0458 -0.47569,-0.0842 -0.19821,-0.0368 -0.39699,-0.0529 -0.59898,-0.0415 -0.23865,0.002 -0.47762,0.005 -0.71448,0.0381 -0.28974,0.0363 -0.57744,0.0834 -0.86337,0.14284 -0.3263,0.0554 -0.65054,0.12217 -0.97792,0.17135 -0.76103,0.10592 -1.52314,0.20865 -2.29174,0.24105 -0.52966,0.0243 -0.68864,0.0358 -1.22929,0.0427 -0.93257,0.0118 -1.86525,-0.0175 -2.79771,-0.0248 -1.36423,-0.023 -2.72856,-0.0391 -4.0927,-0.067 -0.35065,-0.005 -0.62134,-0.008 -0.96762,-0.0186 -0.11408,-0.003 -0.22816,-0.007 -0.34213,-0.0134 -0.0672,-0.004 -0.13423,-0.0105 -0.20135,-0.0156 -0.0302,-0.002 -0.0626,-0.0183 -0.0906,-0.007 -0.10242,0.0427 -0.19279,0.10989 -0.28918,0.16484 0.0247,0.0876 0.14695,0.0653 0.21678,0.0672 0.13597,-2e-4 0.27193,-5.3e-4 0.4079,-10e-4 0.35583,-0.001 0.71166,-0.001 1.06749,5.3e-4 0.58178,0.004 1.16377,0.006 1.74522,0.0275 0.10783,-0.057 0.21572,-0.11382 0.32348,-0.17091 0.003,-0.001 -0.005,0.004 -0.008,0.004 -0.0298,-8e-4 -0.0596,-0.004 -0.0893,-0.006 -0.19532,-0.0112 -0.39081,-0.0194 -0.58622,-0.0289 -0.71963,-0.0268 -1.43999,-0.0317 -2.15965,-0.059 -0.0861,-0.001 -0.17229,-0.003 -0.25844,-0.004 -0.0465,-5.3e-4 -0.0953,-0.0157 -0.13964,-0.001 -0.11217,0.0363 -0.21689,0.0933 -0.32023,0.15003 -0.0414,0.0227 0.004,0.0712 0.0196,0.0867 0.0927,0.0694 0.19798,0.10554 0.31464,0.10574 0.13979,0.0131 0.27925,0.0368 0.41996,0.034 0.16727,-1.4e-4 0.33457,7.9e-4 0.50182,-0.003 0.22415,-0.005 0.4481,-0.0159 0.67187,-0.03 0.35396,-0.0186 0.70816,-0.0153 1.06253,-0.0187 0.42143,-0.006 0.84307,-0.0155 1.2635,-0.0469 0.3775,-0.0275 0.75535,-0.0508 1.13413,-0.0417 0.63855,0.002 1.27724,0.006 1.91538,0.0309 0.404,0.0191 0.81386,0.0259 1.21061,0.11122 7.9e-4,0.004 0.004,0.008 0.002,0.0113 -0.004,0.008 -0.0249,0.0234 -0.0172,0.0195 0.7384,-0.37066 -0.36101,0.14089 -0.0882,0.0791 0.19181,-0.0393 0.3879,-0.0537 0.58278,-0.0695 0.55655,-0.045 1.11438,-0.07 1.67149,-0.10646 0.21967,-0.014 0.43938,-0.0272 0.659,-0.0419 0.17802,-0.0119 0.35981,0.001 0.53392,-0.0379 0.17909,-0.0401 0.34809,-0.11875 0.51419,-0.19681 0.0167,-0.008 -0.0329,-0.0193 -0.0513,-0.0207 -0.20536,-0.0152 -0.41262,0.0154 -0.61775,-0.006 -0.28943,-0.005 -0.51837,-0.007 -0.80695,-0.015 -0.0939,-0.003 -0.19098,-0.0345 -0.28156,-0.01 -0.11154,0.0305 -0.20891,0.10183 -0.30273,0.16941 -0.0489,0.0352 0.31431,-0.0562 0.18071,0.004 0.54329,0.01 1.08694,0.0113 1.62981,-0.0169 0.80921,-0.0313 1.61844,-0.0623 2.42754,-0.0961 0.10813,-0.0558 0.21981,-0.10523 0.32439,-0.16743 0.0233,-0.0138 -0.0152,-0.0208 -0.0646,-0.0261 -0.12272,-0.0132 -0.2465,-0.0149 -0.36977,-0.0126 -0.38402,7.9e-4 -0.76806,0.002 -1.15203,0.009 -0.42921,0.01 -0.85808,0.0272 -1.28696,0.0465 -0.51836,0.009 -1.0364,0.0291 -1.55473,0.0393 -0.70461,5.3e-4 -1.40922,7.9e-4 -2.11382,-7.9e-4 -0.5942,1.3e-4 -1.18839,-5.3e-4 -1.78258,-0.001 -0.55746,0.005 -1.11496,0.0134 -1.67215,0.032 -0.66245,0.0274 -1.32492,0.0782 -1.9881,0.0713 -0.27067,-0.0148 -0.14337,-0.0368 -0.47602,0.15906 -0.008,0.005 0.018,-0.001 0.0271,-0.001 0.0368,-5.2e-4 0.0736,-5.2e-4 0.11042,-2.6e-4 0.15857,2.6e-4 0.18947,0.001 0.35432,0.003 0.27772,0.007 0.55818,0.0105 0.83074,0.0701 0.21068,0.0507 0.42219,0.0967 0.63358,0.14442 0.29994,0.0437 0.60451,0.016 0.90538,-0.006 0.4509,-0.0366 0.90134,-0.079 1.35262,-0.10999 0.2176,-0.01 0.43343,-0.0111 0.65119,-0.01 0.0515,2.6e-4 0.10303,7.9e-4 0.15455,0.001 0.0278,2.7e-4 0.0586,0.0136 0.0834,0.001 0.0938,-0.0473 0.17458,-0.11682 0.26187,-0.17522 -0.22546,0.006 -0.45112,0.004 -0.67657,0.011 -0.37237,0.009 -0.74452,0.0226 -1.11673,0.0363 -0.10085,-5.3e-4 -0.2017,-8e-4 -0.30255,-10e-4 -0.0209,-8e-5 -0.0418,-1.5e-4 -0.0627,-2.4e-4 -0.0161,-8e-5 -0.0341,-0.008 -0.0482,-2.7e-4 -0.0946,0.0518 -0.18125,0.11696 -0.27188,0.17545 0.0963,0.006 0.19303,0.005 0.28892,0.0174 0.13604,0.0182 0.26966,0.0516 0.40769,0.0541 0.20272,0.02 0.40514,0.0399 0.6086,0.051 0.17848,0.0165 0.35667,0.0169 0.53594,0.0136 0.20835,-2.6e-4 0.41673,-2.4e-4 0.62499,-0.007 0.18969,-0.008 0.37831,-0.0306 0.56803,-0.0388 0.2695,-2.4e-4 0.53902,-10e-4 0.8085,0.003 0.23553,0.004 0.47094,0.0123 0.70597,0.0288 0.28839,0.0145 0.57682,0.0158 0.86555,0.0145 0.18425,2.7e-4 0.3685,-7e-5 0.55276,-1.8e-4 0.15874,2.6e-4 0.31749,0.001 0.47624,5.3e-4 0.15682,-9e-5 0.31364,2.6e-4 0.47046,1.6e-4 0.13753,2.4e-4 0.27506,10e-4 0.41257,-0.002 0.21512,-0.004 0.4301,-0.0127 0.64495,-0.0243 0.25613,-0.0135 0.51197,-0.0284 0.76862,-0.0206 0.18194,7.9e-4 0.36388,4e-5 0.54582,6e-5 0.17244,5.3e-4 0.34487,2.6e-4 0.51731,2.7e-4 0.26887,5.3e-4 0.17227,0.0352 0.48169,-0.17457 0.0153,-0.0104 -0.11367,0.0256 -0.0556,8e-4 -0.1097,1.5e-4 -0.21939,5.3e-4 -0.32909,2.6e-4 -0.11325,-9e-5 -0.22654,-2.6e-4 -0.33973,-0.005 -0.14908,-0.007 -0.29803,-0.0169 -0.44624,-0.0347 -0.10135,-0.0114 -0.20328,-0.005 -0.30515,-0.006 -0.11592,5.3e-4 -0.23185,0.001 -0.34778,0.001 -0.16667,-5.2e-4 -0.33356,-0.002 -0.4997,-0.0171 -0.0704,-0.008 -0.10469,-0.009 -0.17207,-0.0239 -0.0205,-0.004 -0.0411,-0.0238 -0.0607,-0.0163 -0.5736,0.22075 -0.32369,0.13955 -0.20825,0.13866 0.17502,-7.9e-4 0.35003,1e-4 0.52505,-5.3e-4 0.18663,-1.8e-4 0.37326,8e-4 0.55989,5.3e-4 0.11975,-6e-5 0.23949,2.7e-4 0.35924,-3e-5 0.11547,0 0.231,2.7e-4 0.34636,0.006 0.16053,0.009 0.3199,0.0283 0.47809,0.0578 0.12221,0.0193 0.24463,0.0359 0.36863,0.0274 0.1244,-0.004 0.24872,-0.0133 0.37125,-0.0363 0.15904,-0.0305 0.52422,-0.0942 0.56679,-0.24734 -0.0394,-0.0792 -0.17935,-0.0548 -0.25116,-0.0724 -0.16435,-0.002 -0.32875,-0.005 -0.49262,-0.0192 -0.21341,-0.0191 -0.42458,-0.0554 -0.63802,-0.0731 -0.13684,-0.002 -0.27384,-0.004 -0.41021,-0.0165 -0.12478,-0.0132 -0.24901,-0.0357 -0.37498,-0.0292 -0.12096,3e-5 -0.24193,-5.3e-4 -0.36287,0.002 -0.17079,0.004 -0.34149,0.0116 -0.5119,0.0239 -0.19033,0.013 -0.38047,0.0269 -0.57141,0.0213 -0.14096,-1.4e-4 -0.28192,5.3e-4 -0.42288,-8e-4 -0.13715,-0.002 -0.27445,-0.006 -0.41061,-0.0245 -0.2509,-0.0308 -0.5017,-0.064 -0.75501,-0.0659 -0.21378,-8e-4 -0.42757,-2.7e-4 -0.64136,-5.3e-4 -0.26697,2.6e-4 -0.53394,0.002 -0.80088,0.007 -0.46746,0.008 -0.93492,0.0173 -1.40213,0.035 -0.36546,0.009 -0.73103,0.003 -1.09659,0.005 -0.31567,2.5e-4 -0.63137,-2.5e-4 -0.94702,0.004 -0.15366,0.003 -0.30664,0.0135 -0.45976,0.0266 -0.24526,0.006 -0.4897,-0.0305 -0.73505,-0.0302 -0.3687,1.8e-4 -0.73739,-5.3e-4 -1.10609,-5.3e-4 -0.32159,7e-5 -0.64321,-0.001 -0.96477,0.005 -0.3163,0.006 -0.63277,0.0139 -0.94828,0.0383 -0.12092,0.0105 -0.24291,0.0123 -0.36164,0.0403 -0.10163,0.0174 -0.20622,0.009 -0.30843,0.0243 -0.15835,0.0155 -0.31744,0.0333 -0.47598,0.008 -0.10528,-0.0198 -0.17877,-0.0705 -0.27371,-0.116 -0.12373,-0.0427 -0.24467,-0.0905 -0.37645,-0.10349 -0.2882,-0.0555 -0.274,-0.0288 -0.5718,0.1559 -0.066,0.0684 -0.089,0.16063 -0.13019,0.24449 -0.0423,0.12434 -0.018,0.17435 0.10333,0.22485 0.14193,0.0419 0.29054,0.0644 0.43867,0.0627 0.1786,-0.001 0.35724,-0.002 0.53578,-0.008 0.16291,-0.008 0.32519,-0.0242 0.48771,-0.0378 0.17766,-7.9e-4 0.35533,-0.003 0.5329,-0.009 0.28351,-0.0104 0.56686,-0.0245 0.85025,-0.0375 0.2136,-6e-5 0.42719,-7.9e-4 0.64078,5.3e-4 0.18402,-2.1e-4 0.36803,-0.001 0.55204,-7.9e-4 0.23171,-2.7e-4 0.46344,-0.001 0.69514,0.002 0.2052,0.003 0.41059,0.007 0.61515,0.0247 0.18186,0.0215 0.36326,0.0396 0.54661,0.0438 0.24492,0.0164 0.48902,0.0192 0.73409,-0.002 0.26,-0.0162 0.51755,-0.0559 0.77824,-0.0624 0.21377,-0.01 0.42784,-0.005 0.64179,-0.006 0.21288,5.3e-4 0.42575,-7.9e-4 0.63863,-7.9e-4 0.27862,2.6e-4 0.55725,9e-5 0.83588,0.002 0.23446,0.003 0.46883,0.009 0.70302,0.0209 0.24994,0.0102 0.4988,0.0169 0.74747,-0.0189 0.2507,-0.0244 0.50089,-0.0599 0.75348,-0.0487 0.21341,1.4e-4 0.42684,0.001 0.64023,-0.003 0.22782,-0.004 0.45535,-0.0124 0.68261,-0.0295 0.23545,-0.0129 0.4707,-0.0152 0.70644,-0.0179 0.19864,-0.006 0.39701,-0.0154 0.59463,-0.0374 0.17766,-0.0169 0.35664,-0.0171 0.53431,-0.0354 0.10702,-0.0104 0.21325,-0.0197 0.32102,-0.0131 0.17514,0.004 0.34985,0.0174 0.52407,0.0359 0.31405,0.0327 0.62739,0.072 0.94172,0.10204 0.35442,-0.23613 0.32112,-0.16636 0.0872,-0.17501 -0.0891,-0.001 -0.1786,-0.003 -0.26665,-0.0187 -0.18419,-0.0336 -0.3671,-0.0727 -0.55439,-0.0867 -0.37791,-0.049 -0.75583,-0.0945 -1.13656,-0.11569 -0.46732,-0.0178 -0.93545,-0.009 -1.40279,-0.0293 -0.80132,-0.0246 -1.60233,-0.0592 -2.4039,-0.0748 -0.66102,-0.006 -1.322,-0.01 -1.98284,0.0107 -0.67766,0.002 -1.3553,0.006 -2.03294,0.0121 -0.85115,0.006 -1.7021,-0.004 -2.55318,-8e-4 -0.47938,0.01 -0.95913,0.0214 -1.43534,0.0824 -0.34075,0.0456 -0.67741,0.11082 -1.01202,0.18968 -0.0666,0.0162 -0.1317,0.0382 -0.19859,0.0531 -0.13602,0.0302 -0.27953,0.007 -0.41475,-0.013 -0.36589,-0.0698 -0.7335,-0.13034 -1.10287,-0.17874 0,0 -0.24399,0.16924 -0.24399,0.16924 z" />
    <path
       style="fill:rgb(85, 33, 33);fill-opacity:1;stroke-width:0.264583"
       id="path16948"
       d="m 151.79185,179.13251 c -0.22425,0.12056 -0.42592,0.18284 -0.67506,0.23447 -0.20649,0.0383 -0.41612,0.0541 -0.62552,0.0654 -0.004,1.9e-4 -0.20917,0.0145 -0.23572,0.006 -0.0503,0.0587 -0.1601,0.0995 -0.1508,0.17621 0.007,0.0567 0.11417,-0.005 0.17126,-0.007 0.19903,-0.009 0.40144,-0.008 0.59921,-0.0334 0.0691,-0.0615 0.20379,-0.092 0.20724,-0.18437 0.002,-0.0667 -0.13336,-0.006 -0.2001,-0.007 -0.10066,-0.001 -0.20134,5.3e-4 -0.30201,-1.2e-4 -0.2876,-0.002 -0.57507,-0.01 -0.86255,-0.0177 -0.0325,-2.6e-4 -0.47329,-0.0367 -0.33423,0.17398 0.0551,0.0835 0.19974,-0.0123 0.29949,-0.02 0.46962,-0.0365 0.93885,-0.0797 1.40814,-0.12013 0.11938,-0.1861 0.32564,0.0405 0.4665,-0.0259 0.0636,-0.03 0.19246,-0.0789 0.15778,-0.14015 -0.0349,-0.0616 -0.13558,0.0409 -0.20422,0.0582 -0.16062,0.0405 -0.32312,0.0732 -0.48456,0.11035 -0.20327,0.0582 -0.44009,0.11254 -0.59302,0.27374 -0.0203,0.0214 0.046,0.0408 0.0747,0.0478 0.0725,0.0176 0.31827,0.005 0.37372,0.003 0.28668,-0.0176 0.58349,-0.0235 0.85854,-0.11611 0.0898,-0.0543 0.1796,-0.10856 0.2694,-0.16283 0,0 -0.2761,0.11414 -0.2761,0.11414 v 0 c 0.0801,-0.0447 0.16026,-0.0895 0.2404,-0.13422 -0.26968,0.11095 -0.57484,0.10758 -0.86041,0.12961 -0.0699,0.002 -0.13981,0.006 -0.20975,0.006 -0.20668,1.6e-4 -0.20694,-0.0272 -0.41167,0.1152 -0.0887,0.0617 0.47926,-0.23407 0.30726,-0.10323 0.31821,-0.074 0.15704,-0.0378 0.48355,-0.10848 0.0675,-0.0154 0.14048,-0.0168 0.20194,-0.0487 0.1112,-0.0577 0.23251,-0.11556 0.30774,-0.21573 0.0969,-0.12897 -0.89906,0.30887 -0.48258,0.0353 -0.40611,0.0365 -0.52923,0.0487 -0.94556,0.0814 -0.15143,0.0119 -0.30288,0.0238 -0.45446,0.0337 -0.23296,0.0152 -0.38822,-0.0289 -0.56583,0.18303 -0.0304,0.0363 0.0946,-0.002 0.14196,-0.003 0.28856,0.006 0.57714,0.0119 0.86574,0.016 0.0988,0.001 0.19762,0.002 0.29642,0.003 0.0623,0.001 0.12785,0.0244 0.18696,0.005 0.10074,-0.0337 0.1839,-0.10644 0.27584,-0.15966 -0.19589,0.0373 -0.40293,0.0325 -0.60171,0.0397 -0.0556,0.002 -0.11453,-0.014 -0.1667,0.005 -0.11634,0.0428 -0.21821,0.11774 -0.32732,0.17661 0.0265,-0.0127 0.23125,-0.0144 0.24326,-0.0151 0.20983,-0.0121 0.42,-0.0265 0.62743,-0.062 0.14006,-0.0264 0.27687,-0.0513 0.41007,-0.10344 0.0799,-0.0313 0.10808,-0.0497 0.18475,-0.0859 0.0258,-0.0122 0.052,-0.0234 0.078,-0.0351 0,0 0.23255,-0.1843 0.23255,-0.1843 z" />
  </g>
</svg>
